<svg width="40" height="40" fill="none" xmlns="http://www.w3.org/2000/svg"><path d="M20 16.406c1.969 0 3.594 1.625 3.594 3.594 0 2-1.625 3.594-3.594 3.594-2 0-3.594-1.594-3.594-3.594A3.594 3.594 0 0 1 20 16.406Zm0 5.938c1.281 0 2.313-1.032 2.313-2.344A2.307 2.307 0 0 0 20 17.687c-1.313 0-2.344 1.032-2.344 2.313A2.34 2.34 0 0 0 20 22.344Zm4.563-6.063a.84.84 0 0 1-.844.844.84.84 0 0 1-.844-.844.84.84 0 0 1 .844-.843.84.84 0 0 1 .843.843Zm2.375.844c.062 1.156.062 4.625 0 5.781-.063 1.125-.313 2.094-1.125 2.938-.813.812-1.813 1.062-2.938 1.125-1.156.062-4.625.062-5.781 0-1.125-.063-2.094-.313-2.938-1.125-.812-.844-1.062-1.813-1.125-2.938-.062-1.156-.062-4.625 0-5.781.063-1.125.313-2.125 1.125-2.938.844-.812 1.813-1.062 2.938-1.124 1.156-.063 4.625-.063 5.781 0 1.125.062 2.125.312 2.938 1.124.812.813 1.062 1.813 1.125 2.938Zm-1.5 7c.375-.906.28-3.094.28-4.125 0-1 .095-3.188-.28-4.125-.25-.594-.72-1.094-1.313-1.313-.938-.374-3.125-.28-4.125-.28-1.031 0-3.219-.095-4.125.28a2.41 2.41 0 0 0-1.344 1.313c-.375.938-.281 3.125-.281 4.125 0 1.031-.094 3.219.281 4.125a2.37 2.37 0 0 0 1.344 1.344c.906.375 3.094.281 4.125.281 1 0 3.188.094 4.125-.281.594-.25 1.094-.719 1.313-1.344Z" fill="#fff"/><circle opacity=".4" cx="20" cy="20" r="19.5" stroke="#fff"/></svg>