<?xml version="1.0" standalone="no"?>
<!DOCTYPE svg PUBLIC "-//W3C//DTD SVG 20010904//EN"
 "http://www.w3.org/TR/2001/REC-SVG-20010904/DTD/svg10.dtd">
<svg version="1.0" xmlns="http://www.w3.org/2000/svg"
 width="512.000000pt" height="512.000000pt" viewBox="0 0 512.000000 512.000000"
 preserveAspectRatio="xMidYMid meet">
<metadata>
Created by potrace 1.14, written by Peter Selinger 2001-2017
</metadata>
<g transform="translate(0.000000,512.000000) scale(0.100000,-0.100000)"
fill="#000000" stroke="none">
<path d="M0 2560 l0 -2560 2560 0 2560 0 0 2560 0 2560 -2560 0 -2560 0 0
-2560z m1568 1725 c19 -44 62 -150 97 -235 97 -237 300 -733 430 -1050 64
-157 139 -339 166 -405 235 -579 275 -670 296 -673 17 -3 25 6 41 50 12 29 43
107 70 173 111 268 328 798 377 920 29 72 161 393 293 715 l241 585 473 0 473
0 3 -1817 2 -1818 -375 0 -375 0 0 1179 c0 718 -4 1182 -9 1186 -5 3 -13 0
-18 -7 -4 -7 -217 -535 -473 -1173 l-465 -1160 -258 0 -258 0 -54 135 c-30 74
-241 603 -469 1175 -259 650 -419 1040 -428 1040 -11 0 -13 -208 -16 -1187
l-2 -1188 -370 0 -370 0 -2 1803 c-2 992 -2 1811 0 1820 3 16 39 17 475 15
l471 -3 34 -80z"/>
</g>
</svg>
