<svg width="40" height="40" fill="none" xmlns="http://www.w3.org/2000/svg"><path d="M26.344 16.75v.438c0 4.343-3.282 9.312-9.313 9.312-1.875 0-3.593-.531-5.031-1.469.25.032.5.063.781.063a6.597 6.597 0 0 0 4.063-1.407 3.265 3.265 0 0 1-3.063-2.28c.219.03.406.062.625.062.281 0 .594-.063.844-.125a3.285 3.285 0 0 1-2.625-3.219v-.031c.438.25.969.375 1.5.406a3.229 3.229 0 0 1-1.469-2.719c0-.625.156-1.187.438-1.656a9.52 9.52 0 0 0 6.781 3.438c-.063-.25-.094-.5-.094-.75a3.28 3.28 0 0 1 3.282-3.282c.937 0 1.78.375 2.406 1.031a6.932 6.932 0 0 0 2.062-.812 3.206 3.206 0 0 1-1.437 1.813 6.151 6.151 0 0 0 1.875-.5c-.438.656-1 1.218-1.625 1.687Z" fill="#fff"/><circle opacity=".4" cx="20" cy="20" r="19.5" stroke="#fff"/></svg>