<svg xmlns="http://www.w3.org/2000/svg">
    <!-- Phone -->
    <symbol viewBox="0 0 16 16" id="phone-icon">
        <path d="M4.91434 0.799805H2.10914C1.38615 0.799805 0.800049 1.3859 0.800049 2.10889C0.800049 9.33881 6.66105 15.1998 13.8909 15.1998C14.6139 15.1998 15.2 14.6137 15.2 13.8907V11.0855L12.1144 9.02836L10.5143 10.6284C10.2364 10.9063 9.8211 10.9927 9.47193 10.8124C8.87974 10.5064 7.91871 9.93159 6.97149 9.02836C6.00161 8.10358 5.43335 7.1071 5.14814 6.50419C4.9883 6.16624 5.08084 5.77616 5.34518 5.51182L6.97149 3.88552L4.91434 0.799805Z"  stroke-width="1.35" stroke-linecap="round" stroke-linejoin="round"/>
    </symbol>
    <!-- Instagram -->
    <symbol viewBox="0 0 36 36" id="instagram-icon">
        <path d="M11.5202 2.00997C6.2767 2.00997 2.01016 6.27652 2.01016 11.52V24.48C2.01016 29.7234 6.2767 33.99 11.5202 33.99H24.4802C29.7236 33.99 33.9901 29.7234 33.9901 24.48V11.52C33.9901 6.27652 29.7236 2.00997 24.4802 2.00997H11.5202ZM11.5202 3.74997H24.4802C28.7796 3.74997 32.2501 7.22055 32.2501 11.52V24.48C32.2501 28.7794 28.7796 32.25 24.4802 32.25H11.5202C7.22073 32.25 3.75016 28.7794 3.75016 24.48V11.52C3.75016 7.22055 7.22073 3.74997 11.5202 3.74997ZM26.6401 7.76997C26.2185 7.76997 25.814 7.93749 25.5158 8.23567C25.2177 8.53385 25.0501 8.93828 25.0501 9.35997C25.0501 9.78166 25.2177 10.1861 25.5158 10.4843C25.814 10.7825 26.2185 10.95 26.6401 10.95C27.0618 10.95 27.4663 10.7825 27.7645 10.4843C28.0626 10.1861 28.2301 9.78166 28.2301 9.35997C28.2301 8.93828 28.0626 8.53385 27.7645 8.23567C27.4663 7.93749 27.0618 7.76997 26.6401 7.76997ZM18.0002 9.92997C13.5517 9.92997 9.93015 13.5516 9.93015 18C9.93015 22.4484 13.5517 26.07 18.0002 26.07C22.4486 26.07 26.0701 22.4484 26.0701 18C26.0701 13.5516 22.4486 9.92997 18.0002 9.92997ZM18.0002 11.67C21.5046 11.67 24.3302 14.4955 24.3302 18C24.3302 21.5045 21.5046 24.33 18.0002 24.33C14.4957 24.33 11.6702 21.5045 11.6702 18C11.6702 14.4955 14.4957 11.67 18.0002 11.67Z" />
    </symbol>
    <!-- Facebook -->
    <symbol viewBox="0 0 28 28" id="facebook-icon">
        <path d="M13.9999 1.68018C7.20241 1.68018 1.67993 7.20265 1.67993 14.0002C1.67993 20.1709 6.23135 25.2777 12.1592 26.1681L12.8023 26.2655V16.5574H9.89181V14.5864H12.8023V11.9691C12.8023 10.3574 13.189 9.29585 13.8293 8.62986C14.4696 7.96388 15.4156 7.62799 16.7321 7.62799C17.7848 7.62799 18.1943 7.69177 18.5838 7.73955V9.35283H17.2134C16.4358 9.35283 15.7978 9.78668 15.4667 10.3646C15.1355 10.9424 15.0324 11.6324 15.0324 12.3355V14.5853H18.4613L18.1562 16.5563H15.0324V26.2808L15.6679 26.1944C21.68 25.379 26.3199 20.2312 26.3199 14.0002C26.3199 7.20265 20.7975 1.68018 13.9999 1.68018ZM13.9999 2.80018C20.1922 2.80018 25.1999 7.80794 25.1999 14.0002C25.1999 19.4489 21.3 23.93 16.1524 24.9388V17.6763H19.1165L19.7673 13.4653H16.1524V12.3355C16.1524 11.7545 16.2587 11.2339 16.4379 10.9213C16.6171 10.6086 16.7898 10.4728 17.2134 10.4728H19.7038V6.72564L19.2182 6.66002C18.8823 6.61457 18.1155 6.50799 16.7321 6.50799C15.2184 6.50799 13.919 6.92035 13.0221 7.8533C12.1252 8.78625 11.6823 10.1754 11.6823 11.9691V13.4664H8.77181V17.6774H11.6823V24.9038C6.61745 23.8309 2.79993 19.3899 2.79993 14.0002C2.79993 7.80794 7.8077 2.80018 13.9999 2.80018Z" />
    </symbol>
    <!-- Telegram -->
    <symbol viewBox="0 0 28 28" id="telegram-icon">
        <path d="M24.8511 3.35223C24.5783 3.3642 24.3128 3.44011 24.0734 3.53598C23.8364 3.63122 22.4721 4.21352 20.4575 5.07489C18.4428 5.93626 15.8239 7.05794 13.2278 8.1702C8.03561 10.3947 2.93341 12.5835 2.93341 12.5835L2.9706 12.5693C2.9706 12.5693 2.66265 12.6722 2.35044 12.8897C2.19434 12.9985 2.02639 13.1389 1.88888 13.3436C1.75137 13.5484 1.65084 13.8385 1.68872 14.1454C1.82179 15.2232 2.93888 15.529 2.93888 15.529L2.94325 15.5311L7.92857 17.2374C8.05567 17.6614 9.44063 22.2839 9.74529 23.2629C9.91354 23.8041 10.071 24.1163 10.2353 24.3293C10.3175 24.4358 10.4036 24.5183 10.4989 24.5786C10.5367 24.6026 10.5765 24.6206 10.6159 24.6366H10.6181C10.6229 24.6387 10.6275 24.6389 10.6323 24.641L10.6192 24.6377C10.6283 24.6414 10.6374 24.6476 10.6465 24.6508C10.6643 24.6571 10.6752 24.6568 10.6979 24.6618C11.2689 24.8611 11.7414 24.4911 11.7414 24.4911L11.7611 24.4758L14.8236 21.6354L19.7936 25.5105L19.8559 25.539C20.7258 25.9252 21.5126 25.7097 21.9483 25.3552C22.3839 25.0007 22.5553 24.5436 22.5553 24.5436L22.5739 24.4955L26.2259 5.46098C26.3194 5.03514 26.3326 4.66704 26.2445 4.33442C26.1564 4.0018 25.9422 3.71265 25.6736 3.55239C25.4049 3.39213 25.1238 3.34027 24.8511 3.35223ZM24.8806 4.49083C24.9914 4.4857 25.0735 4.49836 25.0993 4.5138C25.1252 4.52923 25.1368 4.5272 25.1617 4.62098C25.1865 4.71477 25.2 4.9123 25.1322 5.22145L25.13 5.22801L21.4987 24.1521C21.4901 24.1711 21.4145 24.3462 21.2417 24.4868C21.0654 24.6302 20.8694 24.7421 20.3492 24.524L14.9143 20.2857L14.7612 20.1654L14.7579 20.1686L13.1326 18.9491L22.2665 8.20302C22.3367 8.12066 22.3815 8.01973 22.3956 7.91244C22.4096 7.80515 22.3923 7.69608 22.3457 7.59844C22.299 7.50079 22.2251 7.41874 22.1329 7.36221C22.0406 7.30568 21.9339 7.27709 21.8258 7.27989C21.7201 7.28264 21.6173 7.31525 21.5293 7.37395L8.31247 16.1852L3.3195 14.4757C3.3195 14.4757 2.8237 14.1998 2.79997 14.0075C2.79866 13.9969 2.7928 14.0065 2.81857 13.9682C2.84433 13.9298 2.90909 13.8651 2.99029 13.8085C3.15267 13.6953 3.3381 13.6269 3.3381 13.6269L3.35669 13.6204L3.37529 13.6127C3.37529 13.6127 8.47775 11.4238 13.6697 9.19942C16.2656 8.08722 18.8841 6.96636 20.8983 6.1052C22.9119 5.24427 24.3669 4.62457 24.4901 4.57505C24.6304 4.51888 24.7698 4.49596 24.8806 4.49083ZM18.8234 10.524L11.8967 18.6735L11.8934 18.6768C11.8826 18.6898 11.8724 18.7033 11.8628 18.7172C11.8518 18.7324 11.8416 18.7481 11.8322 18.7643C11.7932 18.8303 11.7683 18.9037 11.7589 18.9797C11.7589 18.9812 11.7589 18.9826 11.7589 18.9841L10.8565 23.0419C10.8415 22.9981 10.831 22.982 10.815 22.9304V22.9293C10.5284 22.0084 9.2217 17.6489 9.04091 17.046L18.8234 10.524ZM12.6787 20.009L13.9234 20.943L12.0947 22.6383L12.6787 20.009Z" />
    </symbol>
    <!-- Stethoscope -->
    <symbol viewBox="0 0 24 24" id="stethoscope-icon">
        <path d="M3.15475 0.37977C2.70944 0.43602 2.25006 0.801645 2.086 1.22821C2.01569 1.42508 1.99225 1.44383 1.81413 1.47196C1.03131 1.59852 0.22975 2.41883 0.0516252 3.27196C-0.0139998 3.5954 -0.0186873 7.70633 0.0469377 8.41415C0.164125 9.63758 0.496938 10.8048 1.03131 11.8829C1.42975 12.6751 1.84694 13.2704 2.43756 13.8891C3.42194 14.9204 4.5985 15.5673 5.85944 15.7735C6.10319 15.811 6.31881 15.8438 6.34225 15.8438C6.361 15.8438 6.37506 17.072 6.37506 18.5766C6.37506 21.5766 6.37506 21.5673 6.66569 22.1579C7.20944 23.2641 8.58288 23.8782 9.79694 23.5595C10.6782 23.3251 11.4282 22.6032 11.7282 21.7032C11.8266 21.4126 11.8313 21.2954 11.8547 19.0548C11.8876 16.4626 11.8735 16.561 12.1969 16.2891C12.6329 15.9188 13.2282 15.9516 13.6313 16.3641C13.8516 16.5891 13.9219 16.8798 13.9219 17.5548C13.9219 18.197 13.9876 18.5063 14.2079 18.947C14.6391 19.8048 15.7219 20.3345 16.6829 20.161C17.0579 20.0954 17.5501 19.8657 17.8313 19.636C18.0798 19.4251 18.3938 18.9891 18.5251 18.6657L18.6329 18.3985L18.6563 14.7423C18.6891 10.7345 18.6704 10.9266 18.9797 10.5141C19.2282 10.186 19.6407 9.98446 20.0579 9.98446C20.2313 9.98446 20.4704 10.0173 20.5922 10.0595C20.8876 10.1579 21.2016 10.4485 21.361 10.772L21.4922 11.0391V15.2251V19.411L21.211 19.5095C19.6782 20.0251 19.2422 21.9563 20.4094 23.0532C20.7657 23.386 21.1032 23.5548 21.5485 23.6298C23.0204 23.8735 24.3047 22.4673 23.9297 21.0329C23.7329 20.2829 23.2454 19.7532 22.5188 19.5048L22.2422 19.411L22.2188 15.1079C22.1954 10.997 22.1907 10.7954 22.1063 10.5938C21.8766 10.0595 21.5297 9.6704 21.0797 9.44071C19.9313 8.85477 18.5766 9.3704 18.0844 10.5845L17.9766 10.8516L17.9532 14.5548C17.9344 17.5876 17.9157 18.286 17.8641 18.422C17.4844 19.3688 16.4157 19.7954 15.5485 19.3548C15.1782 19.1626 14.836 18.7641 14.7094 18.3657C14.686 18.2813 14.6485 17.8407 14.6297 17.3907C14.5969 16.5938 14.5922 16.561 14.4516 16.2891C13.6922 14.8079 11.5313 15.0751 11.1563 16.697C11.1329 16.8141 11.1094 17.8079 11.1094 19.0641C11.1094 21.0235 11.1001 21.2532 11.0251 21.5016C10.5751 22.9313 8.80787 23.3954 7.72038 22.3641C7.57975 22.2329 7.411 22.022 7.34538 21.9001C7.08288 21.4173 7.07819 21.3516 7.07819 18.4876V15.8532L7.20944 15.8251C7.27975 15.811 7.45319 15.7876 7.59381 15.7688C7.9735 15.722 8.56413 15.5438 9.01881 15.3329C10.9641 14.4329 12.4735 12.4688 13.1016 10.0126C13.3969 8.85477 13.4251 8.51727 13.4251 5.81258C13.4297 3.44071 13.4297 3.39383 13.3266 3.06571C13.2001 2.67665 12.9188 2.23133 12.6423 1.98758C12.4079 1.78602 11.8594 1.50946 11.6157 1.47196C11.4563 1.44383 11.4282 1.41571 11.3298 1.20008C11.1657 0.853209 11.0016 0.679771 10.6688 0.515709C10.4204 0.393833 10.3173 0.370396 10.0407 0.370396C9.59069 0.370396 9.30006 0.496958 9.00475 0.825083C8.70944 1.14852 8.60631 1.44383 8.63444 1.8704C8.71412 2.98602 9.99381 3.56727 10.8844 2.89227C11.0485 2.76571 11.3438 2.37196 11.4001 2.19383C11.4094 2.17039 11.536 2.19383 11.6813 2.25008C12.0329 2.38133 12.3797 2.70946 12.5485 3.0704L12.6797 3.35165L12.6938 5.53133C12.7126 7.80946 12.6751 8.51258 12.5157 9.32821C12.1829 10.9688 11.4563 12.3985 10.4063 13.4579C8.96725 14.911 7.17663 15.4407 5.40475 14.9251C3.81569 14.4657 2.47975 13.2282 1.61725 11.4235C1.30319 10.7626 1.13913 10.2985 0.984438 9.65165C0.7735 8.75165 0.750063 8.40477 0.750063 5.85008C0.750063 3.51571 0.75475 3.41727 0.8485 3.16883C0.970375 2.83602 1.2985 2.47508 1.60788 2.32508C2.01569 2.1329 2.03444 2.1329 2.10475 2.32977C2.1985 2.58758 2.60162 2.96727 2.87819 3.06102C3.80163 3.37508 4.72038 2.77977 4.77194 1.82821C4.8235 0.928207 4.07819 0.262583 3.15475 0.37977ZM3.74069 1.17196C4.19069 1.44852 4.19069 2.13758 3.74069 2.37196C3.26725 2.61571 2.71881 2.29227 2.71881 1.77196C2.71881 1.25165 3.30475 0.90477 3.74069 1.17196ZM10.3407 1.15321C10.7719 1.35946 10.8563 1.93133 10.5048 2.26883C10.1204 2.63914 9.44069 2.40946 9.35162 1.88446C9.3235 1.7204 9.33756 1.64071 9.43131 1.46727C9.60944 1.11102 9.98444 0.984459 10.3407 1.15321ZM22.4485 20.2548C22.711 20.3673 22.936 20.5782 23.1001 20.8548C23.1938 21.0188 23.2266 21.1407 23.2407 21.4501C23.2594 21.7876 23.2454 21.8673 23.1469 22.0876C22.6641 23.1423 21.2344 23.1985 20.6391 22.186C20.4797 21.9095 20.4376 21.4032 20.5501 21.061C20.8032 20.3016 21.6985 19.922 22.4485 20.2548Z" fill="#2D3F48"/>
        <path d="M21.6561 21.2813C21.5342 21.4031 21.5342 21.661 21.6467 21.7641C21.7827 21.886 22.0077 21.8672 22.1202 21.7219C22.2467 21.5578 22.242 21.4453 22.1014 21.3047C21.9655 21.1641 21.7827 21.1547 21.6561 21.2813Z" fill="#2D3F48"/>
        <path d="M3.19708 12.1547C3.06114 12.3 3.06114 12.5157 3.20177 12.6469C3.25802 12.6985 3.5252 12.8344 3.79239 12.9375C5.49864 13.6266 7.4627 13.6828 9.22052 13.1016C10.2705 12.75 10.5658 12.4828 10.2424 12.1641C10.0877 12.0047 9.95645 12.0141 9.41739 12.2297C7.6877 12.9282 5.70958 12.9188 3.95645 12.2157C3.47364 12.0188 3.33302 12.0094 3.19708 12.1547Z" fill="#2D3F48"/>
    </symbol>
    <!-- Puzzles head -->
    <symbol viewBox="0 0 20 22" id="puzzles-head-icon">
        <path d="M9.20781 0.195251C5.62656 0.649939 2.62656 3.11088 1.4875 6.52338C1.20156 7.39056 1 8.48744 1 9.20463C1 9.364 0.8875 9.77181 0.625 10.5546C0.41875 11.1734 0.25 11.7171 0.25 11.764C0.25 11.8109 0.30625 11.9093 0.376563 11.9749C0.479688 12.0781 0.639063 12.1343 1.16875 12.2609L1.825 12.4203L2.16719 13.4562C2.35938 14.0281 2.55625 14.539 2.60781 14.5953C2.66406 14.6562 2.89375 14.764 3.16563 14.8531L3.625 15.0031V15.5046V16.0015L3.99063 16.3484C4.72188 17.0515 5.65469 17.6562 6.63906 18.0781L7 18.2374V19.9296V21.6265L7.10781 21.7249C7.24375 21.8515 7.46875 21.8562 7.61406 21.739L7.72656 21.6499L7.74063 20.0749C7.74531 19.2078 7.75938 18.4999 7.77344 18.4999C7.78281 18.4999 7.96563 18.5421 8.18594 18.5937C8.88438 18.7578 9.51719 18.8281 10.375 18.8234C11.3266 18.8234 11.6078 18.7859 11.7438 18.6499C11.8891 18.5046 11.875 18.2796 11.7109 18.139C11.5891 18.0312 11.5609 18.0265 11.1672 18.0593L10.7547 18.0921L10.7406 16.3203C10.7266 14.5671 10.7266 14.5531 10.6234 14.4734C10.5156 14.3796 9.0625 13.9999 8.83281 13.9999C8.725 13.9999 8.65469 14.0468 8.51875 14.2062C8.425 14.3234 8.24219 14.4687 8.11563 14.539C7.91406 14.6515 7.83906 14.6656 7.56719 14.6468C7.1875 14.6281 6.93438 14.4828 6.73281 14.1781C6.62969 14.0234 6.60156 13.9203 6.5875 13.6531C6.57344 13.3437 6.58281 13.3015 6.72813 13.0624C6.84531 12.8656 6.93906 12.7765 7.13594 12.6781C7.6 12.4343 8.07813 12.5281 8.43438 12.9359C8.54219 13.0578 8.67813 13.1749 8.74375 13.1984C8.90313 13.2593 10.4969 12.8656 10.6328 12.7296C10.7219 12.6406 10.7266 12.5656 10.7406 11.2578L10.7547 9.87494H11.9172H13.075L13.1875 10.339L13.2953 10.8031L13.1313 11.0046C12.8922 11.314 12.8266 11.4265 12.7375 11.7265C12.5781 12.2796 12.7234 12.9406 13.1125 13.4093C13.4688 13.8406 14.1766 14.1078 14.7156 14.014C15.3484 13.9062 15.85 13.5406 16.1219 12.9921C16.2438 12.7343 16.2578 12.6687 16.2578 12.2187C16.2578 11.7781 16.2438 11.6984 16.1313 11.4687C16.0609 11.3234 15.925 11.1171 15.8313 11.0093L15.6625 10.8078L15.775 10.3531L15.8875 9.89838L17.4203 9.88431L18.9531 9.87494V10.0437C18.9531 10.1374 18.9203 10.4374 18.8828 10.714C18.4375 13.7609 16.3984 16.3484 13.5391 17.4921C13.3094 17.5812 13.0891 17.6937 13.0609 17.7359C13.0141 17.7968 13 18.2703 13 19.7281C13 21.5796 13.0047 21.6453 13.0938 21.7343C13.1922 21.8328 13.4172 21.8562 13.5625 21.7812C13.7313 21.6921 13.75 21.4859 13.75 19.8312V18.2234L13.9984 18.1156C16.2766 17.1546 18.1422 15.2421 19.0656 12.9218C19.4969 11.8249 19.7031 10.7328 19.7031 9.50931C19.7031 8.36556 19.5766 7.55463 19.2344 6.52806C18.25 3.589 15.9016 1.339 12.9203 0.48119C11.8281 0.167126 10.3328 0.0546265 9.20781 0.195251ZM10 2.62806C10 4.2265 10.0094 4.39056 10.0844 4.47963C10.1453 4.55931 10.3609 4.63431 11.0031 4.79369C11.4672 4.91088 11.8938 4.99525 11.95 4.98119C12.0063 4.96713 12.1281 4.85931 12.2266 4.74213C12.4703 4.44213 12.7141 4.32494 13.0938 4.32025C13.6141 4.32025 13.9984 4.62494 14.1297 5.14994C14.2844 5.77338 13.7547 6.42025 13.0938 6.42025C12.6953 6.42025 12.5266 6.3265 12.1422 5.89994C12.0625 5.81088 11.9641 5.74994 11.8938 5.74994C11.65 5.74994 10.2109 6.139 10.1078 6.23275C10.0047 6.3265 10 6.34525 9.99063 7.714L9.97656 9.1015L8.81875 9.11556L7.66094 9.12494L7.61406 8.9515C7.58594 8.85306 7.53438 8.63275 7.4875 8.45931L7.4125 8.14056L7.57656 7.97181C8.2 7.32963 8.19063 6.18119 7.5625 5.52494C7.15469 5.10306 6.72344 4.92963 6.1375 4.96244C5.70156 4.98588 5.41094 5.09838 5.09219 5.35619C4.30469 6.00306 4.21563 7.21244 4.9 7.98119L5.06406 8.164L4.94219 8.63275L4.82031 9.1015L3.2875 9.11556C1.7875 9.12494 1.75 9.12494 1.75 9.03588C1.75 8.77338 1.90938 7.80306 2.02656 7.32963C2.84219 4.09994 5.54688 1.59681 8.85156 1.01556C9.33438 0.931189 9.55469 0.903065 9.87344 0.884314L10 0.874939V2.62806ZM11.6406 0.973377C13.0844 1.17025 14.6266 1.85463 15.8359 2.84369C17.5797 4.26869 18.7656 6.51869 18.9344 8.7265L18.9672 9.12494H17.2094H15.4516L15.3531 9.22806C15.25 9.34525 14.875 10.7281 14.875 11.0046C14.875 11.1218 14.9266 11.1968 15.1281 11.3843C15.4188 11.6515 15.5313 11.8812 15.5313 12.2234C15.5313 12.8234 15.0813 13.2687 14.4766 13.2687C13.8766 13.2687 13.4219 12.8187 13.4219 12.2187C13.4219 11.8859 13.525 11.6703 13.825 11.389C14.1484 11.0937 14.1484 11.0796 13.9188 10.1562C13.7172 9.35463 13.6703 9.22806 13.5578 9.17181C13.5109 9.14369 12.8969 9.12494 12.1141 9.12494H10.75V7.95306V6.78588L10.9281 6.739C11.0219 6.71556 11.2328 6.65931 11.3969 6.61713L11.6969 6.54213L11.875 6.70619C12.7422 7.489 14.1344 7.24994 14.6781 6.22806C15.3016 5.06088 14.5422 3.68275 13.2156 3.56088C12.7328 3.51869 12.1797 3.72025 11.8375 4.05775L11.7016 4.19369L11.2281 4.0765L10.75 3.95931V2.41244V0.870251L11.0219 0.898376C11.1672 0.912439 11.4484 0.94994 11.6406 0.973377ZM6.63906 5.764C7.0375 5.93275 7.29531 6.3265 7.29063 6.76244C7.28594 7.09994 7.14531 7.38588 6.85469 7.62963C6.67656 7.77963 6.625 7.84994 6.625 7.95775C6.625 8.089 6.89219 9.22806 7.00469 9.58431C7.09375 9.86088 7.16875 9.87494 8.66406 9.87494H10L9.99063 11.0328L9.97656 12.1906L9.50313 12.3078L9.03438 12.4203L8.76719 12.2046C7.8625 11.4687 6.52188 11.7687 6.00156 12.8234C5.86094 13.1093 5.85156 13.1656 5.85156 13.6015C5.85156 14.0187 5.86563 14.1031 5.98281 14.3515C6.15625 14.7218 6.51719 15.0828 6.87813 15.2515C7.13125 15.3687 7.21563 15.3828 7.63281 15.3828C8.04063 15.3828 8.13438 15.3687 8.36406 15.2609C8.50938 15.1906 8.71563 15.0546 8.82344 14.9609L9.01562 14.7874L9.33438 14.8624C9.50781 14.9093 9.72813 14.9609 9.82656 14.989L10 15.0359V16.564V18.0921L9.59219 18.0593C7.90469 17.9328 6.14688 17.2015 4.7875 16.0624L4.375 15.7203V15.1718C4.375 14.7124 4.36094 14.6046 4.29063 14.5156C4.23906 14.4499 4.01406 14.3468 3.69531 14.239L3.17969 14.0609L2.81875 12.9874C2.58906 12.3218 2.42031 11.8859 2.36406 11.839C2.3125 11.7968 2.0875 11.7171 1.85781 11.6609C1.63281 11.6046 1.37031 11.539 1.27188 11.5109L1.10313 11.4687L1.36563 10.6718L1.63281 9.87494H3.42344C5.21406 9.87494 5.21406 9.87494 5.33594 9.76713C5.43906 9.68275 5.49063 9.52806 5.66875 8.82963C5.79063 8.33744 5.86563 7.94838 5.84688 7.89213C5.82812 7.84056 5.69219 7.6765 5.54688 7.53588C5.27031 7.26869 5.17188 7.06713 5.17188 6.75775C5.17188 6.36869 5.43906 5.95619 5.80469 5.79213C6.025 5.689 6.42813 5.67963 6.63906 5.764Z" fill="#2D3F48"/>
    </symbol>
    <!-- Puzzles heart -->
    <symbol viewBox="0 0 24 21" id="puzzles-heart-icon">
        <path d="M5.88273 0.379784C4.39679 0.581347 3.06554 1.24228 1.9921 2.32041C1.00773 3.3001 0.38429 4.46729 0.107728 5.84541C-0.0188346 6.46885 -0.00477205 7.78603 0.131165 8.42353C0.323353 9.30947 0.651478 10.0876 1.16242 10.8751C1.38273 11.2126 2.09523 11.9438 5.87804 15.7313C10.228 20.0813 10.3452 20.1938 10.6921 20.3626C11.5405 20.7704 12.4499 20.7704 13.303 20.3626C13.6124 20.2126 13.7624 20.0954 14.3343 19.5329C14.9202 18.9517 14.9999 18.8579 14.9999 18.722C14.9999 18.6142 14.9624 18.5438 14.878 18.4735C14.6437 18.2907 14.564 18.3282 13.8984 18.9845C13.2702 19.6032 12.9421 19.8188 12.5296 19.9032L12.3749 19.9313V18.3517V16.772L12.4827 16.8001C12.7124 16.8704 13.3171 16.8845 13.603 16.8329C14.639 16.6313 15.464 15.7548 15.6187 14.6907C15.6655 14.3673 15.6609 14.2501 15.5952 13.9173C15.4077 12.9704 14.8077 12.2813 13.8937 11.972C13.5655 11.8642 13.4718 11.8501 13.0312 11.8688C12.7593 11.8829 12.5015 11.9063 12.4593 11.9251C12.3796 11.9626 12.3749 11.9063 12.3749 11.1845V10.4063H14.2874C16.3265 10.4017 16.3077 10.4063 16.3968 10.1673C16.4296 10.0829 16.4062 9.97041 16.2984 9.70322C15.9468 8.81728 16.1812 7.95947 16.9218 7.43916C17.2687 7.2001 17.5968 7.11103 18.0468 7.13447C19.3405 7.20947 20.1234 8.53603 19.5702 9.73603C19.4249 10.0595 19.4249 10.1485 19.5702 10.2892L19.6827 10.4063H20.9999H22.3124L22.139 10.6501C22.0452 10.786 20.5077 12.3657 18.7171 14.1563C15.764 17.1188 15.4687 17.4329 15.4687 17.5688C15.4687 17.7657 15.6093 17.9063 15.8109 17.9063C15.9515 17.9063 16.2374 17.6298 19.2702 14.5876C22.0077 11.8454 22.6218 11.2032 22.8374 10.8751C23.3437 10.1017 23.6765 9.31416 23.8687 8.42353C24.014 7.74385 24.014 6.42197 23.8687 5.75635C23.564 4.36885 22.9827 3.29072 22.0077 2.32041C21.3046 1.6126 20.4234 1.04072 19.589 0.750097C19.3546 0.665722 19.1812 0.721972 19.1062 0.900097C19.0171 1.10166 19.0874 1.28916 19.2796 1.36885C19.739 1.56104 20.4609 1.94541 20.7655 2.16103C20.9577 2.29697 21.2999 2.5876 21.5202 2.80791C23.2265 4.51885 23.7515 7.06416 22.8655 9.31416L22.7109 9.70322H21.5249C20.4374 9.70322 20.3343 9.69853 20.3624 9.62822C20.4374 9.43604 20.4749 8.93447 20.4374 8.63447C20.2734 7.3501 19.228 6.42666 17.9296 6.42197C16.4952 6.42197 15.314 7.69697 15.4405 9.10791C15.4546 9.29541 15.4827 9.50166 15.4968 9.57197L15.5249 9.70322H13.9546H12.3843L12.3655 8.79853C12.3515 7.82822 12.3374 7.77197 12.103 7.68291C12.0187 7.6501 11.9155 7.67353 11.6577 7.79072C11.353 7.92666 11.2734 7.94072 10.8749 7.94541C10.4624 7.94541 10.4015 7.93135 10.1155 7.79072C9.36554 7.42041 8.93898 6.6001 9.09367 5.82666C9.33742 4.64072 10.6218 3.99385 11.6812 4.52822C12.0327 4.70635 12.2296 4.66416 12.3234 4.40166C12.3515 4.31728 12.3749 4.00322 12.3749 3.70322V3.15479L12.5671 3.06572C12.6749 3.01885 12.8905 2.86416 13.0499 2.71885C14.3484 1.54228 15.6749 1.03135 17.4234 1.03135C17.8921 1.03135 17.9624 1.02197 18.0468 0.937597C18.164 0.82041 18.1687 0.590721 18.0515 0.473534C17.9155 0.337597 17.6859 0.309471 16.9968 0.342285C15.4452 0.407909 14.053 0.942284 12.9234 1.90791C12.253 2.47978 12.2437 2.48447 12.0046 2.48447C11.7515 2.48447 11.6812 2.44228 11.2405 2.03916C10.4249 1.28916 9.28117 0.712597 8.11867 0.468847C7.58898 0.356346 6.39835 0.309471 5.88273 0.379784ZM7.94523 1.14853C9.04679 1.37822 9.97492 1.85166 10.8327 2.61572C11.039 2.80322 11.3155 3.00947 11.4421 3.07041L11.6718 3.1876V3.44072C11.6718 3.57666 11.6577 3.69853 11.6437 3.7126C11.6296 3.73135 11.5499 3.72197 11.4702 3.69853C11.3859 3.67041 11.1187 3.65166 10.8749 3.64697C10.1999 3.64697 9.69835 3.83916 9.17804 4.30322C7.77648 5.56416 8.27335 7.91728 10.078 8.53603C10.4062 8.64853 11.0905 8.68604 11.4749 8.61103L11.6718 8.56885V9.13603V9.70322H10.2093C8.63898 9.70791 8.6296 9.70791 8.53585 9.94228C8.50304 10.036 8.52179 10.1298 8.63429 10.3782C9.33742 11.972 7.77648 13.5235 6.19679 12.797C5.89679 12.661 5.84523 12.6517 5.72335 12.7032C5.53585 12.7782 5.45617 12.9798 5.54054 13.1579C5.61554 13.3173 6.07492 13.5563 6.4546 13.636C7.32648 13.8095 8.15148 13.561 8.76554 12.9423C9.30929 12.3938 9.54835 11.761 9.49679 11.0157C9.48273 10.7954 9.45929 10.5704 9.44054 10.5095L9.41242 10.4063H10.5421H11.6718V11.5313C11.6718 12.6095 11.6765 12.661 11.7702 12.7548C11.8921 12.8767 12.0421 12.8579 12.464 12.6798C12.7312 12.5673 12.8062 12.5579 13.1905 12.572C13.528 12.5813 13.6687 12.6142 13.8749 12.7079C14.4234 12.9704 14.7984 13.4579 14.9109 14.072C15.0515 14.8454 14.6249 15.6517 13.8749 16.0032C13.603 16.1345 13.5234 16.1485 13.1249 16.1485C12.7359 16.1485 12.6421 16.1298 12.403 16.0173C12.089 15.872 11.8827 15.8579 11.7562 15.9704C11.6765 16.0407 11.6718 16.1673 11.6718 17.9907V19.936L11.5077 19.9079C11.4187 19.8938 11.2124 19.8235 11.053 19.7532C10.7765 19.6313 10.4859 19.3548 6.50148 15.3798C4.16242 13.0454 2.11867 10.9688 1.96398 10.7673L1.68273 10.4063H3.13585C3.93742 10.4063 4.59367 10.411 4.59367 10.4204C4.59367 10.4251 4.57023 10.5048 4.54679 10.5938C4.47648 10.8282 4.48585 11.5688 4.55617 11.7892C4.66398 12.1126 5.01085 12.1923 5.18429 11.9298C5.24523 11.836 5.24992 11.761 5.2171 11.4985C5.16554 11.086 5.2171 10.697 5.3671 10.3735C5.51242 10.0501 5.51242 9.96103 5.3671 9.82041L5.2546 9.70322H3.27179H1.28898L1.13429 9.31416C0.81554 8.50791 0.674915 7.65947 0.717103 6.79697C0.829603 4.59853 2.09054 2.65791 4.0546 1.67353C4.5421 1.42978 5.22179 1.20478 5.69523 1.12978C5.87804 1.10166 6.07492 1.06885 6.14054 1.05947C6.40304 1.0126 7.58898 1.07353 7.94523 1.14853Z" fill="#2D3F48"/>
    </symbol>
    <!-- Puzzles earth -->
    <symbol viewBox="0 0 24 25" id="puzzles-earth-icon">
        <path d="M4.6172 0.617188C4.50002 0.729687 4.50002 0.739061 4.50002 1.625C4.50002 2.51094 4.50002 2.52031 4.6172 2.63281C4.7297 2.74531 4.74845 2.75 5.46095 2.75H6.18752V4.83125V6.9125L5.80314 7.23125C2.69064 9.79531 1.48127 14.0141 2.76095 17.8437C4.08752 21.8094 7.82345 24.5 12 24.5C14.8078 24.5 17.5172 23.2625 19.3453 21.1484C20.3578 19.9812 21.0703 18.6172 21.4453 17.1453C21.6703 16.2453 21.7219 15.8234 21.7219 14.75C21.7219 13.6766 21.6703 13.2547 21.4453 12.3547C20.9344 10.3531 19.7813 8.53437 18.1735 7.20781L17.8125 6.90781V4.83125V2.75H18.2813H18.75V4.13281V5.52031L18.8672 5.63281C19.0172 5.7875 19.2328 5.7875 19.3828 5.63281L19.5 5.52031V3.125V0.729687L19.3828 0.617188L19.2703 0.5H12H4.7297L4.6172 0.617188ZM18.75 1.625V2H12H5.25002V1.625V1.25H12H18.75V1.625ZM17.0625 4.625V6.5H12H6.93752V4.625V2.75H12H17.0625V4.625ZM9.18752 7.26406C9.18752 7.26875 9.06095 7.65312 8.90627 8.11719C8.75158 8.58125 8.62502 9.00781 8.62502 9.06406C8.62502 9.125 8.76564 9.51875 8.93439 9.94062L9.23908 10.7094L8.83595 11.5156C8.4422 12.3031 8.42814 12.3219 8.30627 12.2891C8.07658 12.2328 7.00783 12.0312 6.92814 12.0312C6.88595 12.0312 6.4547 12.3453 5.97189 12.7297L5.09064 13.4328L4.05939 13.9016C3.4922 14.1594 3.01877 14.3609 3.00939 14.3562C3.0047 14.3469 3.02814 14.0703 3.06564 13.7375C3.35627 11.2391 4.6172 9.05 6.63283 7.53594L7.00783 7.25469L8.10002 7.25C8.69533 7.25 9.18752 7.25469 9.18752 7.26406ZM13.6406 7.3625C13.6406 7.42812 13.8516 7.96719 14.1094 8.56719C14.3672 9.17187 14.5781 9.67344 14.5781 9.69219C14.5781 9.71094 14.3672 10.0766 14.1094 10.5078C13.8516 10.9437 13.6406 11.3328 13.6406 11.3844C13.6406 11.5766 14.3485 13.9297 14.4281 14.0141C14.4938 14.075 14.7563 14.1359 15.4406 14.2531C15.9469 14.3375 16.3828 14.4266 16.4016 14.45C16.425 14.4734 16.561 14.8484 16.7063 15.2891L16.9688 16.0859L16.6313 17.0937L16.2985 18.1016L16.6641 19.1984L17.025 20.2906L17.4938 20.8766C18.0281 21.5469 18.0281 21.4578 17.4703 21.8844C16.6969 22.475 15.7875 22.9625 14.9016 23.2578C14.6344 23.3469 14.4141 23.4219 14.4047 23.4219C14.3953 23.4219 14.3906 23.3 14.3906 23.15C14.3906 22.8922 14.4094 22.85 14.8828 22.0625L15.375 21.2422V20.1125C15.375 19.1 15.3656 18.9688 15.2953 18.8797C15.2485 18.8281 14.7797 18.5656 14.25 18.2984L13.2938 17.8156L12.961 16.9953L12.6328 16.1797L11.8922 15.6219C11.3016 15.1719 11.1188 15.0594 11.0016 15.0594C10.8985 15.0641 10.5 15.2609 9.69377 15.725L8.53127 16.3906H7.02658C6.1547 16.3906 5.48908 16.4094 5.4422 16.4375C5.33908 16.4891 5.28283 16.6297 5.15627 17.1406C5.10002 17.3609 5.03908 17.6187 5.01095 17.7125C4.97345 17.8484 4.86564 17.975 4.48127 18.3125C4.20939 18.5422 3.9797 18.7344 3.96095 18.7344C3.85314 18.7344 3.38908 17.4453 3.21564 16.6719C3.08908 16.0953 2.98595 15.2656 3.03752 15.2094C3.05627 15.1906 3.60939 14.9328 4.26095 14.6328C5.34845 14.1359 5.49845 14.0562 5.94377 13.7047C6.21095 13.4937 6.57658 13.2078 6.7547 13.0672L7.07814 12.8141L7.84689 12.9641C8.26877 13.0437 8.65783 13.1094 8.7047 13.1094C8.75627 13.1094 8.84064 13.0625 8.8922 13.0016C9.00939 12.875 10.0313 10.8453 10.0313 10.7375C10.0313 10.6953 9.88595 10.3016 9.70783 9.85625L9.3797 9.04531L9.68908 8.15L9.99845 7.25H11.8172H13.6406V7.3625ZM17.4094 7.57344C19.1391 8.87656 20.311 10.7047 20.7844 12.8422C21.3844 15.5234 20.6813 18.3734 18.8953 20.5156C18.7125 20.7359 18.5438 20.9141 18.5203 20.9141C18.4969 20.9141 18.2953 20.6891 18.0797 20.4125L17.6813 19.9109L17.3953 19.0531C17.236 18.5797 17.1094 18.1531 17.1094 18.1016C17.1094 18.05 17.2453 17.5953 17.4141 17.0937C17.5828 16.5922 17.7188 16.1375 17.7188 16.0859C17.7188 16.0344 17.5594 15.5094 17.3625 14.9234C17.1 14.1312 16.9828 13.8406 16.9078 13.7891C16.8516 13.7516 16.3922 13.6531 15.8906 13.5687L14.9766 13.4094L14.7094 12.5C14.5641 11.9984 14.4422 11.5484 14.4422 11.5016C14.4375 11.4547 14.6485 11.0609 14.9063 10.6297C15.1688 10.1984 15.375 9.79531 15.375 9.72969C15.375 9.66875 15.1688 9.12969 14.911 8.53906C14.4703 7.50781 14.4563 7.45625 14.5266 7.35781C14.6016 7.25469 14.6156 7.25469 15.7922 7.25H16.9828L17.4094 7.57344ZM11.4985 16.2734L12.0281 16.6719L12.3047 17.3609C12.736 18.4578 12.6047 18.3125 13.6828 18.8516L14.625 19.3203V20.1734V21.0266L14.1328 21.8422L13.6406 22.6625V23.1312V23.6L13.4906 23.6281C11.7563 23.9422 9.77345 23.6609 8.11877 22.8594C6.64689 22.1469 5.4422 21.1109 4.54689 19.7937L4.31252 19.4422L4.91252 18.9312C5.24064 18.65 5.54064 18.3781 5.58283 18.3312C5.62502 18.2797 5.71877 17.9937 5.79377 17.6891L5.92502 17.1406H7.33595H8.7422L9.84377 16.5078C10.4485 16.1609 10.95 15.875 10.9594 15.875C10.9641 15.875 11.2078 16.0531 11.4985 16.2734Z" fill="#2D3F48"/>
    </symbol>
    <!-- Computer -->
    <symbol viewBox="0 0 22 22" id="computer-icon">
        <path d="M1.02499 0.996874C0.893744 1.0625 0.720307 1.19844 0.640619 1.29688C0.340619 1.67656 0.354682 1.17969 0.368744 9.07812L0.382807 16.2734L0.485932 16.4609C0.542182 16.5641 0.654682 16.7141 0.743744 16.7937C1.02031 17.0562 1.17968 17.1125 1.73281 17.1312L2.23437 17.15V17.7781C2.23437 18.2891 2.25312 18.4484 2.32812 18.6547C2.45937 19.0109 2.69843 19.2641 3.05937 19.4422C3.34999 19.5875 3.40156 19.5969 3.99687 19.6156L4.62499 19.6391V19.9437C4.62499 20.3234 4.69531 20.5578 4.86874 20.7734C5.15468 21.1156 5.20156 21.125 6.75781 21.125C8.02812 21.125 8.15937 21.1156 8.31874 21.0359C8.71718 20.8297 8.89062 20.5109 8.89062 19.9766V19.625H11H13.1094V19.9766C13.1094 20.5109 13.2828 20.8297 13.6812 21.0359C13.8406 21.1156 13.9719 21.125 15.2422 21.125C16.7984 21.125 16.8453 21.1156 17.1312 20.7734C17.3047 20.5578 17.375 20.3234 17.375 19.9437V19.6391L18.0031 19.6156C18.5984 19.5969 18.65 19.5875 18.9406 19.4422C19.2922 19.2687 19.5406 19.0016 19.6766 18.6406C19.7469 18.4531 19.7656 18.2844 19.7656 17.7781V17.15L20.2719 17.1312C20.6656 17.1172 20.8156 17.0938 20.9609 17.0141C21.1812 16.8969 21.4062 16.6672 21.5281 16.4375C21.6125 16.2781 21.6172 15.9922 21.6312 9.10156C21.6406 4.00625 21.6312 1.87344 21.5937 1.74219C21.5094 1.44219 21.2609 1.1375 20.9797 0.996874L20.7312 0.875H11H1.26874L1.02499 0.996874ZM20.8297 1.46562C20.9 1.52187 21.0031 1.63437 21.0547 1.72344C21.1484 1.88281 21.1484 1.96719 21.1484 9.00781C21.1484 16.0484 21.1484 16.1328 21.0547 16.2875C21.0031 16.3719 20.8859 16.4891 20.7969 16.5453L20.6328 16.6484H11H1.36718L1.20312 16.5453C1.11406 16.4891 0.996869 16.3719 0.945307 16.2875C0.851557 16.1328 0.851557 16.0391 0.837494 9.11094C0.832807 4.46094 0.842182 2.02344 0.874994 1.90625C0.935932 1.68125 1.08593 1.48906 1.26874 1.40937C1.39062 1.35781 3.05937 1.34844 11.0562 1.35781L20.6984 1.36719L20.8297 1.46562ZM19.2969 17.6844C19.2969 17.9844 19.2734 18.3125 19.2453 18.4109C19.1703 18.6547 18.9453 18.9172 18.7156 19.0203C18.5328 19.1047 18.2187 19.1094 11 19.1094C3.78124 19.1094 3.46718 19.1047 3.28437 19.0203C3.05468 18.9172 2.82968 18.6547 2.75468 18.4109C2.72656 18.3125 2.70312 17.9844 2.70312 17.6844V17.1406H11H19.2969V17.6844ZM8.42187 19.9109C8.42187 20.0797 8.38906 20.2625 8.34687 20.3562C8.21093 20.6469 8.14531 20.6562 6.73906 20.6562H5.47812L5.33281 20.5344C5.17343 20.4031 5.09374 20.1781 5.09374 19.8453V19.625H6.75781H8.42187V19.9109ZM16.9062 19.8453C16.9062 20.1781 16.8266 20.4031 16.6672 20.5344L16.5219 20.6562H15.2609C13.8547 20.6562 13.7891 20.6469 13.6531 20.3562C13.6109 20.2625 13.5781 20.0797 13.5781 19.9109V19.625H15.2422H16.9062V19.8453Z" fill="#2D3F48"/>
        <path d="M2.04688 2.60469C2.01406 2.66562 2 4.29219 2 7.55C2 11.8953 2.00938 12.4062 2.075 12.4719C2.14062 12.5375 3.0125 12.5469 11 12.5469C18.9875 12.5469 19.8594 12.5375 19.925 12.4719C19.9906 12.4062 20 11.8953 20 7.55C20 4.29219 19.9859 2.66562 19.9531 2.60469C19.9016 2.51562 19.7563 2.51562 11 2.51562C2.24375 2.51562 2.09844 2.51562 2.04688 2.60469ZM19.5219 5.24375L19.5078 7.50781L18.8234 7.52187C18.2 7.53125 18.1344 7.52656 18.1016 7.45156C18.0828 7.40469 17.9328 6.97812 17.7688 6.50469C17.6047 6.03125 17.4453 5.61406 17.4172 5.57656C17.3469 5.49687 17.1641 5.49687 17.0797 5.58125C17.0469 5.61875 16.8734 6.05937 16.6953 6.56562L16.3766 7.48438H15.6969H15.0172L14.5672 7.14219C13.9719 6.69219 13.9297 6.66875 13.7984 6.73906C13.7422 6.77187 13.4938 6.95 13.2453 7.14219L12.7953 7.48438H11.5016H10.2125L9.58906 8.30469C9.14844 8.89062 8.95625 9.11094 8.92813 9.06406C8.9 9.0125 8.37969 7.55 7.63906 5.43125C7.55938 5.20156 7.44688 5.12187 7.28281 5.18281C7.18906 5.22031 7.10938 5.4125 6.71094 6.54219C6.45781 7.26875 6.2375 7.85938 6.22344 7.85938C6.20938 7.85938 6.10156 7.59219 5.98438 7.25937L5.77344 6.66406L5.60938 6.65C5.45 6.63594 5.43125 6.65469 5.14531 7.03906C4.98125 7.26406 4.81719 7.475 4.77969 7.5125C4.72344 7.56875 4.51719 7.57812 3.60313 7.56875L2.49219 7.55469L2.47813 5.26719L2.46875 2.98438H11H19.5312L19.5219 5.24375ZM8.05156 8.06562C8.69375 9.89375 8.71719 9.94531 8.94219 9.88906C8.98438 9.875 9.34063 9.43906 9.73906 8.90937L10.4609 7.95312H11.7219H12.9828L13.4375 7.60156L13.8922 7.25469L14.3797 7.61562L14.8625 7.97656L15.6828 7.99062C16.2828 8 16.5406 7.98594 16.625 7.94375C16.7188 7.89219 16.7891 7.75156 16.9766 7.2125C17.1078 6.84687 17.225 6.54688 17.2391 6.54688C17.2578 6.54688 17.3797 6.86094 17.5156 7.25C17.6469 7.63437 17.7641 7.95781 17.7688 7.9625C17.7688 7.96719 18.1625 7.98125 18.6406 7.99531L19.5078 8.02344V10.0391V12.0547H11H2.49219L2.47813 10.0484L2.46875 8.04688H3.71094H4.95781L5.07969 7.91562C5.14531 7.84531 5.2625 7.7 5.34219 7.5875C5.42188 7.47969 5.50156 7.40469 5.51563 7.42344C5.53438 7.44687 5.64688 7.75625 5.77344 8.11719C5.89531 8.47812 6.01719 8.80156 6.04531 8.82969C6.06875 8.8625 6.14844 8.89062 6.21875 8.89062C6.28906 8.89062 6.36875 8.8625 6.39688 8.82969C6.42031 8.80156 6.65 8.1875 6.90313 7.47031C7.175 6.69219 7.37188 6.19062 7.39531 6.22812C7.41406 6.26094 7.70938 7.08594 8.05156 8.06562Z" fill="#2D3F48"/>
        <path d="M6.9687 13.5781C6.5187 13.789 6.2937 14.1312 6.2937 14.6093C6.2937 14.8109 6.32183 14.9703 6.37808 15.0781C6.7437 15.7812 7.63901 15.9453 8.18276 15.4015C8.6937 14.8859 8.59995 14.0328 7.99058 13.6578C7.69058 13.4703 7.2687 13.4375 6.9687 13.5781ZM7.58745 14C7.7937 14.0609 7.98589 14.2718 8.02808 14.4921C8.14526 15.1156 7.37183 15.4859 6.93589 15.0125C6.80464 14.8718 6.7812 14.8109 6.7812 14.6093C6.7812 14.4171 6.80464 14.3515 6.92651 14.2109C7.0437 14.0796 7.20776 13.9906 7.39058 13.9578C7.40464 13.9531 7.4937 13.9765 7.58745 14Z" fill="#2D3F48"/>
        <path d="M10.5922 13.564C10.2125 13.6953 9.875 14.1922 9.875 14.6093C9.875 15.1437 10.3063 15.6265 10.85 15.7156C11.1875 15.7672 11.5063 15.6547 11.7734 15.3875C12.2328 14.9234 12.2469 14.3422 11.8109 13.8593C11.4969 13.5078 11.0516 13.4 10.5922 13.564ZM11.2672 14.0422C11.8719 14.3187 11.6656 15.2187 11 15.2187C10.5125 15.2187 10.2266 14.7312 10.4563 14.2859C10.5359 14.1406 10.8359 13.9531 11 13.9531C11.0375 13.9531 11.1594 13.9953 11.2672 14.0422Z" fill="#2D3F48"/>
        <path d="M14.2203 13.55C13.625 13.7656 13.3109 14.4875 13.5734 15.0594C13.9719 15.9312 15.1766 15.9453 15.6219 15.0781C15.7391 14.8437 15.7344 14.3609 15.6078 14.1172C15.3406 13.6109 14.7453 13.3672 14.2203 13.55ZM14.7594 14C14.8531 14.0281 14.9938 14.1219 15.0734 14.2156C15.1953 14.3516 15.2188 14.4172 15.2188 14.6094C15.2188 14.8109 15.1953 14.8719 15.0688 15.0125C14.7313 15.3734 14.1453 15.2656 13.9953 14.8109C13.8688 14.4219 14.1266 14.0328 14.5625 13.9578C14.5766 13.9531 14.6656 13.9766 14.7594 14Z" fill="#2D3F48"/>
        <path d="M2.0749 14.45C1.97646 14.5484 1.98115 14.6703 2.08427 14.7641C2.15927 14.8344 2.32802 14.8438 3.48115 14.8438C4.88271 14.8438 4.90615 14.8391 4.90615 14.6094C4.90615 14.3797 4.88271 14.375 3.47177 14.375C2.32802 14.375 2.13583 14.3844 2.0749 14.45Z" fill="#2D3F48"/>
        <path d="M17.15 14.4312C17.1172 14.4641 17.0938 14.5437 17.0938 14.6094C17.0938 14.8391 17.1172 14.8438 18.5234 14.8438C19.7422 14.8438 19.85 14.8391 19.9203 14.7594C20.0187 14.6516 20.0234 14.5437 19.925 14.45C19.8641 14.3844 19.6719 14.375 18.5281 14.375C17.5625 14.375 17.1922 14.3891 17.15 14.4312Z" fill="#2D3F48"/>
    </symbol>
    <!-- Group chain -->
    <symbol viewBox="0 0 24 24" id="group-chain-icon">
        <path d="M5.63433 0.0936813C4.79526 0.201492 3.87651 0.510868 3.17339 0.928055C2.51245 1.31712 2.36245 1.52806 2.57339 1.78587C2.7187 1.96399 2.92026 1.92649 3.38901 1.62649C4.12495 1.15774 4.95933 0.876493 5.86401 0.78743C7.90776 0.590555 9.93276 1.5468 11.1046 3.27649C11.3437 3.62337 11.7187 4.38743 11.7187 4.51868C11.7187 4.57493 11.7609 4.70618 11.8125 4.81868C12.0562 5.35774 12.1406 6.65149 11.9812 7.46243C11.7796 8.50305 11.3437 9.39837 10.6312 10.2281C10.3453 10.5562 10.2703 10.5796 10.2656 10.3359C10.2656 10.2843 10.2046 10.1109 10.1296 9.95149C9.86714 9.39837 9.35151 9.04212 8.43745 8.7843C8.1937 8.71868 7.94995 8.62024 7.90308 8.57337C7.81401 8.48899 7.81401 8.48431 7.94995 8.38587C8.19839 8.19368 8.64839 7.71556 8.8312 7.43899C9.18745 6.89055 9.32808 6.38431 9.32808 5.60149C9.32808 4.32649 9.0562 3.52493 8.39058 2.85462C7.82808 2.28274 7.17651 2.01555 6.36558 2.01555C4.94995 2.01555 3.80151 3.03743 3.53901 4.52337C3.45933 4.98743 3.44526 6.0468 3.51558 6.42649C3.53901 6.56712 3.66089 6.88118 3.78276 7.12493C3.97026 7.50931 4.06401 7.63587 4.46245 8.0343C4.90308 8.47493 4.97339 8.5968 4.8187 8.64368C3.72183 8.96712 3.38433 9.11243 3.03745 9.41712C2.79839 9.63274 2.55933 10.0546 2.50776 10.364L2.47495 10.5562L2.31089 10.3968C2.08589 10.1859 1.6312 9.57649 1.42964 9.21556C1.18589 8.77493 0.993701 8.27806 0.857764 7.7343C0.749951 7.30774 0.731201 7.13899 0.731201 6.49212C0.726514 5.18899 1.01245 4.25149 1.73901 3.18274C2.05776 2.71868 2.09058 2.54993 1.8937 2.39524C1.82339 2.33899 1.72964 2.2968 1.68276 2.2968C1.40151 2.2968 0.731201 3.31868 0.379639 4.29368C0.117139 5.02024 0.0280762 5.55462 0.0280762 6.44524C0.0280762 7.29368 0.0796387 7.66868 0.314014 8.41399C0.689014 9.59524 1.53276 10.7718 2.57808 11.5593C3.03276 11.9062 3.80151 12.314 4.31245 12.4874L4.66401 12.6046L4.67808 14.9062C4.68745 17.0671 4.68276 17.2077 4.60776 17.2359C4.05933 17.4187 3.68433 17.7374 3.46401 18.2015C3.11245 18.9609 3.33276 19.8421 4.00776 20.3531C4.33589 20.6015 4.6312 20.6952 5.08589 20.6952C5.40933 20.6952 5.50308 20.6718 5.77495 20.5452C6.26245 20.3156 6.57651 19.9499 6.76401 19.3968C6.79214 19.3171 6.94683 19.3124 9.1312 19.3124H11.4656L11.55 19.5796C12.0187 21.0702 13.2937 22.5327 14.7609 23.2734C16.0921 23.939 17.6999 24.1124 19.1765 23.7421C21.4968 23.1609 23.2874 21.314 23.8499 18.9234C23.9578 18.4593 23.9718 18.2999 23.9718 17.5546C23.9718 16.8046 23.9578 16.6499 23.8499 16.1859C23.3765 14.1843 22.0921 12.5999 20.2406 11.7421L19.7343 11.5077V8.92962V6.35149L19.964 6.26712C20.3062 6.14524 20.625 5.90618 20.8265 5.62024C21.0703 5.27806 21.1546 4.94993 21.1312 4.49524C21.0656 3.39837 20.0531 2.65774 18.9562 2.90149C18.4265 3.02337 17.9015 3.50149 17.7328 4.01712L17.6531 4.26555H15.0281H12.3984L12.2156 3.84368C11.5546 2.29212 10.0265 0.909306 8.39058 0.379618C7.59839 0.117119 6.41245 -0.00475693 5.63433 0.0936813ZM7.04058 2.81712C7.60308 3.00462 8.03433 3.37493 8.29683 3.89524C8.43276 4.16243 8.60151 4.72493 8.55933 4.76712C8.54526 4.78118 8.42339 4.68274 8.28276 4.55149C8.01558 4.29837 7.77183 4.1718 7.56089 4.1718C7.49058 4.1718 7.23276 4.22337 6.9937 4.28899C6.44995 4.43431 6.32339 4.43431 5.77026 4.28899C5.52651 4.22337 5.2687 4.1718 5.20308 4.1718C5.03901 4.1718 4.73901 4.33587 4.45308 4.5843C4.18589 4.81868 4.16714 4.79056 4.2937 4.35462C4.52339 3.59056 5.04839 3.03743 5.76558 2.80774C6.1312 2.69056 6.67964 2.69524 7.04058 2.81712ZM19.7953 3.62337C20.4796 3.91399 20.6578 4.83274 20.1281 5.36243C19.7109 5.77962 19.0734 5.77493 18.6515 5.34837C18.2859 4.98743 18.2296 4.48118 18.4968 4.04524C18.75 3.63743 19.3593 3.44056 19.7953 3.62337ZM5.69526 4.99212C6.22026 5.13743 6.51558 5.13743 7.07808 4.99212C7.32183 4.92649 7.53745 4.87493 7.5562 4.87493C7.57495 4.87493 7.72026 4.99212 7.87964 5.13274C8.04839 5.28274 8.26401 5.42337 8.39526 5.47024L8.62495 5.55462V5.77024C8.62495 6.66556 8.0437 7.57493 7.17183 8.03899C6.83433 8.21712 6.80151 8.22649 6.39839 8.22649C6.00933 8.22649 5.94839 8.21243 5.64839 8.06243C5.17026 7.82337 4.61714 7.26555 4.38276 6.77337C4.22808 6.45462 4.19995 6.35149 4.1812 5.98118L4.16245 5.55462L4.42495 5.44212C4.57495 5.38118 4.80464 5.23118 4.93589 5.10462C5.07183 4.98274 5.20308 4.87962 5.22651 4.87962C5.25464 4.87493 5.46089 4.92649 5.69526 4.99212ZM17.6718 5.02493C17.6718 5.17024 17.9578 5.66712 18.1453 5.85462C18.3328 6.04212 18.8296 6.32805 18.975 6.32805C19.0171 6.32805 19.0312 6.85774 19.0312 8.81712V11.3109L18.8578 11.2781C18.1875 11.1702 17.5921 11.1421 17.0531 11.1937C16.1062 11.2874 15.4359 11.489 14.625 11.9109C14.0343 12.2202 13.7531 12.4312 13.725 12.5812C13.6921 12.7406 13.7765 12.8952 13.9359 12.9843C14.0812 13.064 14.0109 13.0921 14.6859 12.6796C16.3921 11.6437 18.6468 11.6062 20.3671 12.5906C21.8437 13.4296 22.8328 14.7843 23.189 16.4531C23.3062 17.0015 23.3062 18.1077 23.189 18.6562C22.964 19.6921 22.5 20.6156 21.8156 21.3702L21.5437 21.6656L21.4687 21.389C21.3187 20.8406 21.014 20.4702 20.4843 20.2031C20.2781 20.0999 19.8328 19.9452 19.1812 19.7531C19.0265 19.7062 19.0968 19.5843 19.5328 19.1437C20.0484 18.6281 20.3296 18.1593 20.4609 17.6202C20.5546 17.2218 20.5546 16.1671 20.4609 15.6327C20.1984 14.1468 19.0546 13.1249 17.639 13.1249C17.1234 13.1249 16.8328 13.1906 16.3593 13.4156C15.6609 13.7484 15.1171 14.3952 14.864 15.1874C14.6859 15.7593 14.6203 16.7952 14.7187 17.4327C14.8359 18.1312 15.3187 18.914 15.9468 19.4062C16.139 19.5609 16.1578 19.5937 16.1062 19.664C16.0734 19.7109 15.8109 19.8187 15.5109 19.9077C14.8734 20.0999 14.5031 20.2921 14.2171 20.564C14.0109 20.7656 13.7343 21.2671 13.7343 21.4452C13.7296 21.689 13.6546 21.6656 13.3687 21.3374C12.075 19.8327 11.6343 17.9718 12.1218 16.0874C12.2671 15.5202 12.6093 14.8031 12.989 14.2499C13.2562 13.8609 13.275 13.8187 13.2375 13.6781C13.1859 13.4999 12.989 13.3827 12.8203 13.4249C12.6 13.4812 12 14.3952 11.7 15.1406C11.4656 15.7077 11.3156 16.3452 11.25 16.9921C11.1984 17.5077 11.2031 17.7656 11.2781 18.3843L11.3062 18.6093H9.0562H6.8062L6.72651 18.3749C6.56714 17.9015 6.09839 17.4327 5.62495 17.2734L5.39058 17.1937L5.39995 14.9859L5.41401 12.7781L5.67183 12.7968C5.81245 12.8109 6.2062 12.8156 6.53901 12.8109C8.18433 12.7921 9.70308 12.1406 10.8984 10.9452C11.8406 10.0077 12.45 8.84056 12.6843 7.53743C12.8062 6.84368 12.7828 5.69524 12.6328 5.09524L12.6 4.96868H15.1359C17.1328 4.96868 17.6718 4.98274 17.6718 5.02493ZM5.8312 8.88274C6.12651 8.9718 6.67026 8.9718 6.96089 8.88274L7.19058 8.81712L7.34058 8.99055C7.42026 9.0843 7.4812 9.17805 7.47183 9.19681C7.46245 9.21556 7.21401 9.36555 6.9187 9.53899L6.38901 9.84837L5.85464 9.5343C5.55933 9.36087 5.31089 9.21556 5.30151 9.20618C5.29214 9.19681 5.33901 9.12649 5.40933 9.04681C5.47495 8.96712 5.5312 8.87805 5.5312 8.85462C5.5312 8.79837 5.55933 8.80305 5.8312 8.88274ZM5.2687 10.0031C5.72339 10.2702 6.17339 10.5046 6.26245 10.5234C6.3562 10.5374 6.5062 10.5281 6.59995 10.4952C6.74995 10.4484 7.95464 9.76868 8.22651 9.58118C8.36245 9.48274 8.47964 9.50149 8.83589 9.67024C9.39839 9.94212 9.60933 10.2609 9.60933 10.8562V11.1374L9.24839 11.3531C8.52183 11.7749 7.79058 12.0093 6.90464 12.1031C5.77495 12.2202 4.50464 11.939 3.53433 11.3531L3.16401 11.1327L3.17339 10.7859C3.18745 10.3781 3.30464 10.0968 3.55308 9.89055C3.71714 9.75462 4.2187 9.52024 4.35933 9.51556C4.40151 9.51556 4.80933 9.73587 5.2687 10.0031ZM18.1921 13.9031C18.9187 14.1187 19.4765 14.6906 19.7062 15.464C19.8328 15.8999 19.814 15.9281 19.5468 15.6937C19.2468 15.4359 18.9562 15.2812 18.7734 15.2812C18.6984 15.2812 18.4453 15.3327 18.2109 15.3984C17.6906 15.5437 17.5734 15.5437 17.0156 15.3984C16.7718 15.3327 16.5093 15.2812 16.439 15.2812C16.2281 15.2812 15.9843 15.4077 15.7171 15.6609C15.5765 15.7921 15.4546 15.8906 15.4406 15.8765C15.3937 15.8296 15.5578 15.2906 15.6984 15.014C16.1671 14.0906 17.2265 13.6171 18.1921 13.9031ZM16.9218 16.1015C17.4937 16.2468 17.7562 16.2468 18.3281 16.0968L18.7921 15.9702L19.0593 16.2093C19.2093 16.3406 19.439 16.4952 19.5796 16.5562L19.8281 16.6593V16.9734C19.8281 17.8171 19.2046 18.7452 18.3421 19.1765C18.0562 19.3218 17.9859 19.3359 17.6203 19.3359C17.25 19.3359 17.1937 19.3218 16.8562 19.1577C15.9796 18.7218 15.375 17.789 15.375 16.8796V16.664L15.6093 16.5796C15.7546 16.5281 15.9468 16.4015 16.1109 16.2421C16.2609 16.1015 16.4062 15.989 16.4296 15.989C16.4578 15.9843 16.6781 16.0359 16.9218 16.1015ZM5.50776 17.9859C5.88276 18.1734 6.10308 18.5296 6.10308 18.9374C6.10308 19.9921 4.73433 20.3999 4.17183 19.514C3.86245 19.0312 3.97026 18.4452 4.42495 18.089C4.7062 17.8687 5.17964 17.8218 5.50776 17.9859ZM17.0343 19.9921C17.3343 20.0859 17.8734 20.0812 18.1875 19.9874C18.3703 19.9312 18.4453 19.9265 18.4593 19.964C18.4687 19.9968 18.5296 20.0812 18.5953 20.1609C18.6609 20.2359 18.7078 20.3062 18.6984 20.3156C18.689 20.3249 18.4406 20.4702 18.1453 20.6437L17.6156 20.9531L17.2312 20.7374C17.025 20.6156 16.7718 20.4656 16.6734 20.4046L16.4953 20.2921L16.65 20.1093C16.7343 20.0062 16.8046 19.9218 16.8046 19.9218C16.8046 19.9218 16.9078 19.9546 17.0343 19.9921ZM16.4437 21.0843C17.3156 21.5999 17.4984 21.6749 17.7374 21.6281C17.8312 21.614 18.2765 21.3796 18.7312 21.1124C19.1859 20.8452 19.589 20.6249 19.6218 20.6249C19.7531 20.6249 20.2828 20.8687 20.4468 20.9999C20.6906 21.2015 20.8171 21.5015 20.8265 21.9046L20.8359 22.2421L20.4656 22.4624C18.7031 23.5218 16.3734 23.4843 14.5921 22.3687C14.3906 22.2421 14.3906 22.2421 14.3906 21.9609C14.3906 21.5202 14.4609 21.3327 14.7375 21.0702C14.9671 20.8499 15.375 20.6343 15.5765 20.6296C15.6187 20.6249 16.0125 20.8312 16.4437 21.0843Z" fill="#2D3F48"/>
    </symbol>
    <!-- Rhombus -->
    <symbol viewBox="0 0 64 64" id="rhombus-icon">
        <path d="M32 0C32.0125 17.6679 46.3321 31.9875 64 32C46.3321 32.0125 32.0125 46.3321 32 64C31.9875 46.3321 17.6679 32.0125 0 32C17.6679 31.9875 31.9875 17.6679 32 0Z" fill="#BCDEC1"/>
    </symbol>
    <!-- Star -->
    <symbol viewBox="0 0 22 21" id="star-icon">
        <path d="M20.6152 0.560547H0.333496V20.8422H20.6152V0.560547Z" fill="white"/>
    </symbol>
    <!-- Letter -->
    <symbol viewBox="0 0 21 15" id="letter-icon">
        <path d="M20.4817 13.9191C20.4926 13.8846 20.5 13.8483 20.5 13.81V1.18935C20.5 1.15087 20.4926 1.11428 20.4814 1.0796C20.4798 1.07485 20.4789 1.0701 20.477 1.06534C20.4622 1.02472 20.4404 0.988139 20.413 0.956069C20.4111 0.953931 20.4109 0.951318 20.4091 0.94918C20.4079 0.947992 20.4065 0.947517 20.4053 0.946329C20.3761 0.914496 20.3415 0.88884 20.3028 0.869598C20.2998 0.868173 20.2975 0.866272 20.2944 0.864847C20.2578 0.84798 20.2179 0.838478 20.1759 0.835628C20.1717 0.83539 20.1678 0.83444 20.1636 0.83444C20.1596 0.834202 20.1562 0.833252 20.1522 0.833252H0.84824C0.844296 0.833252 0.840583 0.834202 0.836639 0.83444C0.832927 0.834677 0.829215 0.83539 0.825503 0.835628C0.783046 0.838478 0.742445 0.848218 0.705324 0.865322C0.703004 0.866272 0.701148 0.867935 0.698828 0.868885C0.659387 0.888127 0.624355 0.914259 0.59489 0.946566C0.59373 0.947754 0.592338 0.947992 0.591178 0.94918C0.589322 0.95108 0.58909 0.953693 0.587234 0.955831C0.559857 0.987901 0.537817 1.02472 0.522969 1.06534C0.521112 1.0701 0.520184 1.07485 0.51856 1.07984C0.507424 1.11452 0.5 1.1511 0.5 1.18959V13.8105C0.5 13.8494 0.507656 13.8865 0.519024 13.9217C0.520648 13.9264 0.521576 13.9309 0.5232 13.9357C0.538281 13.9765 0.560553 14.0134 0.588162 14.0454C0.589786 14.0473 0.59025 14.0497 0.591874 14.0516C0.593266 14.0533 0.595122 14.0542 0.596746 14.0559C0.608114 14.068 0.620643 14.0787 0.633635 14.0891C0.639435 14.0937 0.644539 14.0991 0.650571 14.1034C0.665884 14.1143 0.682356 14.1231 0.699292 14.1312C0.703468 14.1331 0.707181 14.1362 0.711357 14.1378C0.75335 14.1561 0.799518 14.1666 0.848008 14.1666H20.1518C20.2003 14.1666 20.2464 14.1564 20.2884 14.1378C20.2949 14.135 20.3009 14.1307 20.3072 14.1274C20.3216 14.12 20.336 14.1124 20.3492 14.1032C20.3562 14.0982 20.3624 14.0918 20.3692 14.0863C20.381 14.0766 20.3926 14.0668 20.4028 14.0556C20.4046 14.0537 20.4067 14.0523 20.4086 14.0504C20.4104 14.0483 20.4109 14.0454 20.4128 14.0433C20.4399 14.0115 20.4617 13.9749 20.4766 13.9345C20.4789 13.9293 20.48 13.9243 20.4817 13.9191ZM1.19625 1.99752L7.05368 7.47581L1.19625 12.9978V1.99752ZM13.2016 7.20737C13.1775 7.22352 13.1519 7.23706 13.1318 7.25987C13.1241 7.26842 13.1215 7.27958 13.1148 7.28861L10.5001 9.73402L1.74517 1.54568H19.2551L13.2016 7.20737ZM7.56966 7.95828L10.2653 10.4795C10.3319 10.5417 10.4159 10.5728 10.5001 10.5728C10.5843 10.5728 10.6683 10.5417 10.7347 10.4795L13.3969 7.98964L19.2534 13.4539H1.74007L7.56966 7.95828ZM13.9131 7.50693L19.804 1.99752V13.0035L13.9131 7.50693Z" fill="white"/>
    </symbol>
    <!-- Location -->
    <symbol viewBox="0 0 21 21" id="location-icon">
        <path d="M10.4999 2.16675C6.99992 2.16675 3.83325 4.85008 3.83325 9.00008C3.83325 11.6501 5.87492 14.7667 9.94992 18.3584C10.2666 18.6334 10.7416 18.6334 11.0583 18.3584C15.1249 14.7667 17.1666 11.6501 17.1666 9.00008C17.1666 4.85008 13.9999 2.16675 10.4999 2.16675ZM10.4999 10.5001C9.58325 10.5001 8.83325 9.75008 8.83325 8.83341C8.83325 7.91675 9.58325 7.16675 10.4999 7.16675C11.4166 7.16675 12.1666 7.91675 12.1666 8.83341C12.1666 9.75008 11.4166 10.5001 10.4999 10.5001Z" fill="white"/>
    </symbol>
</svg>