<svg width="184" height="61" fill="none" xmlns="http://www.w3.org/2000/svg"><path d="M184 0H0v60.128h184V0Z" fill="#5BBA4B"/><path fill-rule="evenodd" clip-rule="evenodd" d="M10.714 4.51c-.526.215.088 1.683.208 2.04.23.693.493 1.349.724 2.041.438 1.336.93 2.804 1.238 4.248.7 3.4.986 6.48.284 10.011-.591 3.02-1.632 5.668-2.454 8.52-1.325 4.594-1.742 9.69-.131 14.379.394 1.145 1.15 2.673 1.819 3.615.186.251.383.526.57.776.186.25.405.501.602.74.208.262.416.453.646.68 1.227 1.23 2.213 2.052 3.736 2.971 2.147 1.289 5.105 2.482 8.041 2.447 2.948-.036 5.665-.8 8.108-2.41 2.136-1.409 3.889-3.127 5.028-5.728 1.162-2.661 1.665-6.217 1.359-9.51-.285-2.972-1.545-6.027-2.706-8.234a43.603 43.603 0 0 0-2.005-3.413c-1.26-1.945-3.144-4.45-4.656-6.169-1.085-1.241-2.06-2.303-3.177-3.52-.899-.979-3.232-3.282-4.196-4.153l-.537-.5c-.931-.86-1.863-1.647-2.849-2.507-.865-.763-2.038-1.682-2.947-2.386-.69-.537-5.653-4.332-6.683-3.914l-.022-.024Zm16.127 25.023c1.676-.144 3.604.37 4.985.978 5.62 2.47 8.907 9.76 6.31 16.694-.263.704-.679 1.539-1.03 2.088-1.183 1.885-2.673 3.4-4.689 4.45-5.927 3.091-12.938.359-15.732-5.882a13.698 13.698 0 0 1 .756-12.6c1.063-1.779 2.772-3.485 4.678-4.452 1.567-.8 2.772-1.11 4.7-1.264l.022-.012Zm1.873 5.668c2.005-.191 4.12.668 5.665 1.968.208.18.361.347.558.526.58.524 1.38 1.67 1.819 2.66.471 1.05.789 2.303.854 3.64.143 2.697-.8 4.928-2.267 6.766-.165.214-.373.405-.548.572-.625.561-1.096.979-1.906 1.408-2.717 1.432-5.906 1.265-8.436-.525-.603-.43-.69-.549-1.194-1.002-.285-.262-.767-.883-1.02-1.24-2.07-2.889-2.256-7.566-.306-10.585.427-.668.438-.692.931-1.277a8.253 8.253 0 0 1 2.454-1.969c1.118-.596 1.994-.8 3.374-.93l.023-.012Z" fill="#FBFDFF"/><path d="M60.54 30.022h-.163l-.099.143c-.427.609-.942 1.062-1.534 1.36a4.158 4.158 0 0 1-1.895.442c-1.38 0-2.553-.525-3.484-1.563-.942-1.062-1.402-2.303-1.402-3.807 0-1.503.449-2.637 1.391-3.699.92-1.038 2.093-1.563 3.473-1.563.81 0 1.545.19 2.18.585.515.31.986.763 1.413 1.348l.099.131h3.89l-.198-.5c-.668-1.671-1.665-2.972-2.958-3.903-1.293-.919-2.783-1.384-4.448-1.384-2.586 0-4.7 1.026-6.288 3.055-1.359 1.742-2.05 3.735-2.05 5.93 0 2.196.691 4.272 2.06 6.038 1.578 2.029 3.67 3.055 6.234 3.055 1.676 0 3.188-.477 4.492-1.432 1.227-.895 2.202-2.136 2.87-3.711l.22-.513H60.53l.01-.012ZM81.017 34.795l-6.376-16.681-.088-.215h-2.717l-.087.215-6.377 16.681-.186.502h3.845l.088-.227 1.49-4.081h5.182l1.49 4.08.088.228h3.845l-.186-.502h-.011Zm-6.551-7.529h-2.52l1.26-3.52 1.26 3.52ZM98.02 34.795l-6.07-16.67-.076-.226h-2.936l-.077.227-6.069 16.67-.175.489h3.834l.088-.227 3.867-11.491 3.867 11.49.088.228h3.835l-.176-.49ZM120.008 20.25c-1.589-1.755-3.572-2.65-5.905-2.65-1.928 0-3.67.645-5.171 1.922-1.523 1.277-2.498 2.97-2.904 5.023h-1.95V17.9h-3.495v17.398h3.495v-6.945h1.852c.35 2.243 1.347 4.057 2.98 5.405 1.523 1.277 3.276 1.921 5.182 1.921 2.311 0 4.294-.883 5.894-2.613 1.599-1.73 2.399-3.89 2.399-6.384s-.8-4.665-2.388-6.42l.011-.011Zm-5.905 1.062c1.347 0 2.498.525 3.418 1.55.931 1.039 1.391 2.268 1.391 3.748 0 1.48-.449 2.732-1.391 3.794-.92 1.038-2.071 1.563-3.44 1.563-1.37 0-2.465-.513-3.396-1.563-.921-1.038-1.392-2.315-1.392-3.794 0-1.48.449-2.697 1.392-3.747.931-1.038 2.048-1.551 3.418-1.551ZM137.121 17.899h-13.508V21.61h5.171v13.675H132.279V21.61H137.45V17.899h-.329ZM150.827 17.899h-10.89V35.285H151.156V31.574H143.432v-3.115h7.494V24.748h-7.494V21.61H151.156V17.899h-.329ZM171.729 17.899h-4.086l-.077.227-3.955 11.837-3.955-11.837-.077-.227h-4.404V35.285h3.484V24.522l3.44 10.536.077.227h2.87l.077-.227 3.44-10.537V35.285H172.058V17.899h-.329ZM54.592 45.105h-.646v-3.842l-1.48 3.842h-.558l-1.49-3.842v3.842h-.646v-4.832h.953l1.457 3.973 1.468-3.974h.953v4.833h-.011ZM64.572 42.922h-3.856c.033.5.197.895.47 1.181.286.286.658.43 1.118.43.702 0 1.195-.275 1.457-.824h.756c-.482 1.014-1.216 1.516-2.202 1.516-.668 0-1.216-.239-1.654-.728-.438-.49-.646-1.098-.646-1.826s.219-1.325.657-1.802c.438-.489.997-.728 1.654-.728.712 0 1.271.275 1.676.836.384.513.57 1.169.57 1.957v-.012Zm-3.856-.645h3.155c-.099-.966-.624-1.444-1.589-1.444-.416 0-.755.132-1.04.394-.274.263-.46.609-.537 1.05h.01ZM73.808 46.12h-.624v-1.014h-2.991v1.014h-.625v-1.683h.395l1.391-4.176h.636l1.402 4.176h.394v1.683h.022Zm-1.095-1.683-1.02-3.162h-.032l-1.008 3.162h2.06ZM82.781 45.105h-.668v-3.782l-2.41 3.782h-.69v-4.832h.668v3.77l2.421-3.77h.69v4.832h-.01ZM91.49 45.106h-.647V43.04a3.23 3.23 0 0 1-1.16.203c-.395 0-.735-.12-.987-.37-.262-.25-.394-.585-.394-1.014V40.26h.646v1.456c0 .584.252.87.756.87.438 0 .81-.07 1.14-.226v-2.1h.646v4.845ZM100.703 45.105h-.668v-2.16h-2.246v2.16h-.668v-4.832h.668v2.04h2.246v-2.04h.668v4.832ZM110.125 45.105h-.668v-3.782l-2.421 3.782h-.69v-4.832h.668v3.77l2.421-3.77h.69v4.832ZM119.537 45.105h-.668v-3.782l-2.411 3.782h-.679v-4.832h.646v3.782l2.433-3.782h.69v4.832h-.011Zm-.69-6.515c-.033.37-.154.656-.373.86-.208.214-.482.31-.822.31-.339 0-.591-.108-.81-.323-.219-.215-.34-.5-.373-.859h.57c0 .18.066.334.186.454a.613.613 0 0 0 .866 0 .624.624 0 0 0 .186-.454h.57v.012ZM136.167 46.12h-.635v-1.015h-3.298v-4.832h.668v4.176h2.137v-4.176h.646v4.176h.482v1.682-.012ZM145.71 42.922h-3.856c.033.5.197.895.471 1.181.285.286.657.43 1.118.43.701 0 1.194-.275 1.457-.824h.756c-.482 1.014-1.216 1.516-2.202 1.516-.669 0-1.217-.239-1.655-.728-.427-.49-.646-1.098-.646-1.826s.219-1.325.657-1.802c.438-.489.997-.728 1.654-.728.713 0 1.271.275 1.677.836.383.513.569 1.169.569 1.957v-.012Zm-3.867-.645h3.155c-.098-.966-.624-1.444-1.588-1.444-.417 0-.756.132-1.03.394-.285.263-.46.609-.537 1.05ZM154.703 45.105h-.669v-2.16h-2.245v2.16h-.668v-4.832h.668v2.04h2.245v-2.04h.669v4.832ZM159.953 40.261h2.957v.656h-1.139v4.177h-.668v-4.177h-1.139v-.656h-.011ZM172.726 42.683c0 .716-.219 1.325-.657 1.802-.439.489-.986.728-1.655.728-.668 0-1.172-.275-1.621-.836v2.816h-.647V40.25h.647v.763c.46-.584 1.008-.87 1.643-.87.636 0 1.194.25 1.633.74.438.488.646 1.085.646 1.801h.011Zm-.69 0c0-.513-.154-.943-.471-1.3a1.481 1.481 0 0 0-1.173-.538c-.449 0-.821.191-1.139.561-.318.37-.471.812-.471 1.3 0 .49.164.896.482 1.278.318.381.701.572 1.128.572.461 0 .855-.179 1.173-.548.317-.37.471-.8.471-1.313v-.012Z" fill="#fff"/></svg>