<svg width="184" height="61" fill="none" xmlns="http://www.w3.org/2000/svg"><path fill-rule="evenodd" clip-rule="evenodd" d="M1.326.01c-.593.245.1 1.927.235 2.337.26.793.556 1.545.815 2.338.494 1.532 1.05 3.213 1.396 4.868.79 3.896 1.112 7.424.321 11.471-.667 3.46-1.84 6.494-2.767 9.762-1.494 5.264-1.964 11.102-.148 16.475.445 1.313 1.297 3.063 2.063 4.143.21.287.432.602.642.889.21.287.457.574.68.848.234.3.47.52.729.779 1.383 1.408 2.495 2.352 4.212 3.404 2.421 1.477 5.756 2.844 9.067 2.803 3.323-.04 6.386-.916 9.14-2.762 2.41-1.613 4.386-3.582 5.67-6.562 1.31-3.05 1.879-7.124 1.533-10.897-.322-3.405-1.742-6.905-3.052-9.434a50.177 50.177 0 0 0-2.26-3.91c-1.408-2.23-3.545-5.1-5.25-7.07a211.183 211.183 0 0 0-3.582-4.033c-1.013-1.12-3.645-3.76-4.732-4.758l-.605-.574c-1.05-.984-2.1-1.887-3.211-2.871-.976-.875-2.298-1.928-3.323-2.735C8.12 3.906 2.524-.442 1.363.037L1.326.009ZM19.51 28.68c1.89-.164 4.064.424 5.62 1.122 6.337 2.83 10.043 11.184 7.115 19.127a14.176 14.176 0 0 1-1.16 2.393c-1.335 2.16-3.015 3.897-5.288 5.1-6.683 3.541-14.588.41-17.738-6.74a15.92 15.92 0 0 1 .852-14.439c1.198-2.037 3.125-3.992 5.275-5.1 1.766-.916 3.125-1.271 5.299-1.449l.025-.014Z" fill="#5BBA4B"/><path fill-rule="evenodd" clip-rule="evenodd" d="M21.622 35.175c2.26-.22 4.645.765 6.386 2.256.235.205.408.396.63.601.655.602 1.557 1.914 2.051 3.05.531 1.202.89 2.638.976 4.17.16 3.09-.902 5.646-2.557 7.752-.186.246-.42.465-.618.656-.704.643-1.235 1.121-2.137 1.613-3.063 1.64-6.658 1.45-9.512-.601-.679-.493-.778-.63-1.346-1.149-.321-.3-.865-1.012-1.149-1.422-2.335-3.309-2.544-8.668-.346-12.127.482-.766.494-.793 1.05-1.463.667-.82 1.643-1.655 2.767-2.256 1.26-.684 2.248-.916 3.805-1.067v-.013Z" fill="#5BBA4B"/><path d="M57.508 30.608h-.186l-.11.164c-.483.697-1.063 1.217-1.73 1.559a4.626 4.626 0 0 1-2.137.506c-1.581 0-2.854-.588-3.916-1.791-1.062-1.217-1.581-2.64-1.581-4.362 0-1.723.506-3.022 1.569-4.238 1.05-1.204 2.334-1.792 3.915-1.792.915 0 1.742.22 2.459.67.58.356 1.111.875 1.593 1.545l.111.15h4.386l-.223-.573c-.753-1.915-1.877-3.405-3.335-4.471-1.458-1.053-3.138-1.586-5.015-1.586-2.916 0-5.3 1.175-7.09 3.5-1.533 1.996-2.31 4.28-2.31 6.795 0 2.516.777 4.895 2.322 6.918 1.778 2.325 4.138 3.5 7.028 3.5 1.89 0 3.595-.546 5.065-1.64 1.383-1.026 2.483-2.448 3.236-4.252l.248-.588h-4.3v-.014ZM80.608 36.077l-7.19-19.114-.099-.246h-3.063l-.099.246-7.19 19.114-.21.575h4.337l.099-.26 1.68-4.676h5.842l1.68 4.676.1.26h4.335l-.21-.575h-.012Zm-7.4-8.627h-2.84l1.42-4.033 1.42 4.033ZM99.766 36.077l-6.83-19.1-.1-.26h-3.298l-.099.26-6.843 19.1-.198.56h4.324l.099-.259 4.36-13.166 4.373 13.166.087.26h4.323l-.198-.56ZM124.558 19.41c-1.791-2.01-4.027-3.035-6.658-3.035-2.174 0-4.139.738-5.831 2.201-1.705 1.463-2.804 3.405-3.273 5.756h-2.199v-7.615h-3.941V36.65h3.941v-7.957h2.087c.396 2.57 1.52 4.649 3.36 6.194 1.717 1.462 3.694 2.2 5.843 2.2 2.607 0 4.843-1.01 6.646-2.993 1.804-1.997 2.718-4.458 2.718-7.315 0-2.858-.902-5.346-2.693-7.356v-.014Zm-6.658 1.217c1.519 0 2.816.602 3.854 1.778 1.05 1.19 1.569 2.597 1.569 4.293 0 1.695-.532 3.144-1.569 4.348-1.038 1.19-2.335 1.79-3.879 1.79s-2.779-.587-3.829-1.79c-1.038-1.19-1.569-2.653-1.569-4.348 0-1.696.506-3.09 1.569-4.293 1.05-1.19 2.31-1.764 3.854-1.764v-.014ZM143.853 16.717h-15.231v4.252H134.453v15.669H138.393V20.969H144.224v-4.252h-.371ZM159.307 16.717h-12.279v19.92h12.65v-4.251h-8.709v-3.569h8.449v-4.252h-8.449V20.97h8.709v-4.252h-.371ZM182.876 16.717h-4.608l-.086.26-4.459 13.563-4.46-13.563-.086-.26H164.211v19.92h3.928V24.306l3.879 12.073.086.26h3.237l.086-.26 3.879-12.073v12.333h3.941V16.717h-.371ZM50.798 47.89h-.728v-4.403l-1.668 4.402h-.63l-1.68-4.402v4.402h-.729v-5.537h1.075l1.643 4.553 1.655-4.553h1.075v5.537h-.013ZM62.064 45.388h-4.349c.037.574.223 1.025.532 1.353.32.329.74.493 1.26.493.79 0 1.346-.315 1.643-.944h.852c-.544 1.162-1.371 1.737-2.483 1.737-.754 0-1.371-.274-1.865-.834-.495-.561-.73-1.258-.73-2.092 0-.834.248-1.518.742-2.065.494-.56 1.124-.834 1.865-.834.803 0 1.433.315 1.89.957.433.588.643 1.34.643 2.242v-.013Zm-4.361-.738h3.558c-.111-1.108-.704-1.655-1.792-1.655-.469 0-.852.15-1.173.451-.309.301-.519.698-.605 1.204h.012ZM72.465 49.052h-.704V47.89h-3.372v1.162h-.704v-1.928h.444l1.57-4.785h.716l1.58 4.785h.445v1.928h.025Zm-1.223-1.928-1.149-3.623h-.037l-1.136 3.623h2.322ZM82.594 47.89h-.753v-4.335l-2.718 4.334h-.778v-5.537h.753v4.32l2.73-4.32h.778v5.537h-.012ZM92.402 47.89h-.729v-2.365a3.59 3.59 0 0 1-1.309.232c-.457 0-.828-.137-1.112-.424-.296-.287-.444-.67-.444-1.162v-1.832h.728v1.668c0 .67.284.998.853.998.494 0 .914-.082 1.284-.26V42.34h.73v5.551ZM102.792 47.89h-.753v-2.475h-2.533v2.474h-.753v-5.537h.753v2.338h2.533v-2.338h.753v5.537ZM113.414 47.89h-.753v-4.335l-2.73 4.334h-.779v-5.537h.754v4.32l2.73-4.32h.778v5.537ZM124.026 47.89h-.754v-4.334l-2.73 4.334h-.766v-5.537h.729v4.334l2.743-4.334h.778v5.537Zm-.778-7.465c-.038.424-.186.752-.42.984-.235.246-.544.356-.927.356s-.667-.123-.914-.37c-.247-.246-.383-.574-.42-.984h.642c0 .205.062.383.21.52a.685.685 0 0 0 .976 0 .718.718 0 0 0 .21-.52h.643v.014ZM142.777 49.052h-.716v-1.163h-3.718v-5.537h.753v4.785h2.409v-4.785h.729v4.785h.543v1.928-.013ZM153.537 45.388h-4.348c.037.574.222 1.025.531 1.353.321.329.741.493 1.26.493.791 0 1.347-.315 1.643-.944h.852c-.543 1.162-1.371 1.737-2.482 1.737-.754 0-1.372-.274-1.866-.834-.482-.561-.729-1.258-.729-2.092 0-.834.248-1.518.742-2.065.494-.56 1.124-.834 1.865-.834.803 0 1.433.315 1.89.957.432.588.642 1.34.642 2.242v-.013Zm-4.36-.738h3.557c-.111-1.108-.704-1.655-1.791-1.655-.469 0-.852.15-1.173.451-.322.301-.519.698-.606 1.204h.013ZM163.692 47.89h-.754v-2.475h-2.532v2.474h-.754v-5.537h.754v2.338h2.532v-2.338h.754v5.537ZM169.608 42.339h3.336v.752h-1.285v4.785h-.754v-4.785h-1.284v-.752h-.013ZM183.998 45.114c0 .82-.247 1.518-.741 2.065-.494.56-1.111.834-1.865.834s-1.322-.314-1.828-.957v3.227h-.729v-7.958h.729v.875c.519-.67 1.136-.998 1.853-.998.716 0 1.346.287 1.84.848.494.56.729 1.244.729 2.064h.012Zm-.778 0c0-.587-.173-1.08-.531-1.49a1.66 1.66 0 0 0-1.322-.615c-.494 0-.926.219-1.284.642-.359.424-.532.93-.532 1.49 0 .561.186 1.026.544 1.464.358.437.791.656 1.272.656.519 0 .964-.205 1.322-.629.358-.424.531-.916.531-1.504v-.014Z" fill="#5BBA4B"/></svg>