<svg width="112" height="92" fill="none" xmlns="http://www.w3.org/2000/svg"><path d="M111.153 48.115a.274.274 0 0 0-.251-.05c-.097.03-.185.056-.269.08l-.041.012c-.207.06-.385.112-.562.183-2.791 1.108-4.988 3.006-6.717 5.802-.428.691-.758 1.41-1.022 2.125.432-2.409.532-3.347.609-6.043.004-.113.004-.228.004-.342 0-.312 0-.607.068-.875.081-.32.246-.637.405-.944a11 11 0 0 0 .127-.25.178.178 0 0 1 .07-.043c.798-.122 1.504-.46 2.158-1.035a6.9 6.9 0 0 0 1.612-2.117c1.473-2.95 2.21-6.212 2.192-9.692a8.656 8.656 0 0 0-.085-1.018c-.02-.16-.04-.322-.056-.491a.273.273 0 0 0-.149-.215.276.276 0 0 0-.263.013l-.131.079c-.075.045-.132.08-.186.118a14.17 14.17 0 0 0-3.294 3.328c-1.517 2.14-2.399 4.557-2.637 7.218l-.071-.89-.008-.107c-.094-1.163-.19-2.365-.268-3.548-.02-.299-.078-.59-.133-.872-.108-.542-.209-1.053-.047-1.59.037-.12.068-.243.1-.365.076-.301.447-.765 1.017-1.273l.021-.02c.21-.177 1.289-1.163 1.901-3.114.622-1.982.575-4.052.54-5.564l-.001-.04c-.045-2.079-.27-3.645-.728-5.08a9.918 9.918 0 0 0-.205-.554l-.119-.308a.268.268 0 0 0-.207-.172l-.046-.004a.267.267 0 0 0-.208.099l-.446.542c-2.135 2.602-3.185 5.654-3.119 9.07.011.602.057 1.22.136 1.857a52.615 52.615 0 0 0-1.903-5.445.397.397 0 0 1-.026-.127l-.005-.239c-.007-.346-.015-.703 0-1.055a.54.54 0 0 1 .118-.267c.112-.147.236-.291.365-.441.219-.255.445-.518.624-.818.577-.966.848-2.106.853-3.59.008-1.747-.262-3.585-.85-5.786-.32-1.2-.805-2.76-1.708-4.173a4.13 4.13 0 0 0-.203-.28 5.119 5.119 0 0 1-.102-.135c-.051-.068-.122-.108-.236-.108a.272.272 0 0 0-.217.138c-1.133 2.043-1.698 4.225-1.724 6.671-.023 2.04.296 3.795.696 5.182a51.64 51.64 0 0 0-3.374-5.352l-.028-.039c-.028-.037-.04-.055-.038-.042a32.33 32.33 0 0 1-.167-1.375c0-.006.008-.038.065-.133.081-.138.17-.273.264-.416.19-.288.385-.585.51-.918.378-1.005.463-2.145.259-3.483-.448-2.963-1.755-5.63-3.996-8.156a9.39 9.39 0 0 0-.755-.731L89.19.839c-.105-.095-.214-.192-.323-.296a.271.271 0 0 0-.266-.062.273.273 0 0 0-.183.198l-.049.215c-.033.142-.06.255-.078.367-.302 1.799-.28 3.725.067 5.89.345 2.146 1.031 3.998 2.084 5.606-1.58-1.859-3.115-3.42-4.72-4.803a.158.158 0 0 1-.02-.045c.126-1.08-.14-2.097-.815-3.11-.885-1.331-2.116-2.346-3.657-3.015-.922-.4-1.878-.753-2.814-1.1-.448-.166-.896-.332-1.358-.51-.463-.184-.662-.216-.77-.117-.138.13-.105.24-.044.44l.02.065c.565 1.903 1.315 3.408 2.294 4.601 1.798 2.193 3.9 3.307 6.423 3.405.089.006.159.03.187.052.356.266.617.479.848.69a39.89 39.89 0 0 1 2.156 2.127c-1.048-.65-2.328-.944-3.77-.871-.79.04-1.573.155-2.331.267l-.029.005-.67.096c-.486.066-.977.152-1.41.228-.176.031-.595.127-.692.33a.23.23 0 0 0 .008.215c.033.06.07.117.11.168 1.251 1.622 2.678 2.69 4.363 3.265 2.055.705 3.941.647 5.637-.182a1.91 1.91 0 0 1 .93-.215c.269 0 .471.043.538.058.1.017.237.073.265.109a48.944 48.944 0 0 1 2.99 4.418c-.79-.767-1.82-1.284-3.223-1.621-1.23-.293-2.486-.356-3.701-.417l-.407-.02c-.382-.02-.763-.044-1.155-.069l-.659-.04a.267.267 0 0 0-.215.11.268.268 0 0 0-.036.254c.027.072.075.198.1.24 1.281 2.142 2.787 3.624 4.6 4.53 1.774.885 3.376 1.119 4.992.733a2.73 2.73 0 0 1 .628-.07c.688 0 1.167.21 1.268.404a54.617 54.617 0 0 1 2.367 5.68c-.718-.99-1.722-1.793-2.993-2.393-1.262-.595-2.577-1.14-3.87-1.675-.556-.23-1.115-.46-1.67-.696a.27.27 0 0 0-.378.247c0 .173 1.844 5.288 4.523 7.303 1.093.822 2.44 1.668 4.137 1.708.508.01 1.033.082 1.43.532.06.072.14.128.228.157.136.045.173.128.24.41.55 2.306.95 4.682 1.197 7.096a9.493 9.493 0 0 0-.261-.743c-.599-1.519-1.608-2.848-3.175-4.183-.808-.69-1.654-1.36-2.472-2.007l-.039-.03c-.372-.296-.744-.59-1.115-.887a10.062 10.062 0 0 1-.237-.198l-.231-.198a.27.27 0 0 0-.444.224l.029.466.005.069c.018.305.035.592.066.876.29 2.766 1.113 5.075 2.517 7.06.869 1.226 2.115 2.725 4.059 3.434.473.173.816.436 1.183.907.347.442.412.845.404 1.353a55.983 55.983 0 0 1-.452 6.3 8.638 8.638 0 0 0-.399-1.782c-.421-1.272-1.077-2.51-2.006-3.783-.802-1.102-1.636-2.209-2.443-3.279l-.053-.071-.951-1.264a.359.359 0 0 0-.192-.133.271.271 0 0 0-.376.16l-.009.028a.668.668 0 0 0-.03.108c-.556 3.315-.215 6.285 1.044 9.08.615 1.367 1.439 2.914 2.892 4.028a4.508 4.508 0 0 1 1.475 2.008c.061.169.059.242.052.27-.615 2.546-1.418 5-2.395 7.324.251-1.224.234-2.51-.053-3.843-.408-1.889-1.108-3.72-1.733-5.287l-.188-.47-.892-2.242a.278.278 0 0 0-.256-.171.265.265 0 0 0-.235.147l-.098.184c-.043.08-.084.156-.118.234-1.257 2.833-1.682 5.738-1.262 8.633.301 2.07.81 3.552 1.651 4.806.436.648.85 1.37.925 2.258.018.21.01.355-.084.52a40.7 40.7 0 0 1-3.554 5.236l.015-.027c.937-1.711.965-3.562.87-5.146-.083-1.358-.239-2.715-.389-4.026l-.008-.076c-.06-.525-.121-1.05-.176-1.576a65.718 65.718 0 0 0-.103-.9l-.048-.409a.267.267 0 0 0-.146-.208c-.148-.078-.387.041-.646.347-1.778 2.101-2.882 4.475-3.28 7.057-.413 2.677-.19 4.967.685 7.003.024.054.023.165.023.202l-.047 1.171a.392.392 0 0 1-.088.215 31.396 31.396 0 0 1-5.829 4.429c.993-.897 1.707-2.067 2.17-3.55.513-1.642.776-3.352 1.031-5.01l.022-.148c.09-.583.185-1.164.281-1.758l.11-.672a.268.268 0 0 0-.1-.254.274.274 0 0 0-.271-.038l-.095.04c-.101.04-.19.078-.273.12-3.965 1.979-6.576 6.594-6.207 10.973a5.285 5.285 0 0 1-.193 1.968.273.273 0 0 1-.096.132c-1.884.793-3.675 1.373-5.477 1.77a.269.269 0 0 0-.146.437c.196.232.366.482.507.742a.28.28 0 0 0 .297.135 31.121 31.121 0 0 0 4.251-1.288.513.513 0 0 1 .271-.053c.301.04.619.102.972.19.073.018.133.051.135.048.77 1.536 2.096 2.514 4.053 2.99.426.102.865.178 1.305.224.46.048.974.073 1.527.073.765 0 1.31-.047 1.317-.048 1.696-.19 3.145-.57 4.427-1.165.527-.244 1.127-.573 1.588-1.159a.27.27 0 0 0-.034-.368c-1.303-1.149-2.63-1.984-4.057-2.552-2.114-.839-4.04-1.066-5.928-.704a8.845 8.845 0 0 0-.825.203 33.782 33.782 0 0 0 5.053-3.705.27.27 0 0 1 .12-.06c.262-.043.609-.096.964-.122.032 0 .074.016.079.018.962 1.075 2.201 1.598 3.79 1.598.08 0 .161-.002.242-.004 1.727-.056 3.462-.53 5.16-1.41 1.233-.642 2.519-1.39 3.562-2.507.231-.248.438-.529.62-.777l.018-.024c.081-.109.162-.22.246-.328a.275.275 0 0 0 .053-.21.28.28 0 0 0-.128-.186c-.019-.01-.46-.247-.863-.402-2.7-1.042-5.425-1.15-8.025-.312a8.538 8.538 0 0 0-2.431 1.25 42.35 42.35 0 0 0 3.99-5.486c.013-.021.047-.078.058-.088.106-.067.215-.131.323-.195.194-.113.395-.23.584-.37.159-.12.204-.123.364-.02.228.148.493.225.723.285 1.35.346 2.71.174 4.214-.532 1.375-.644 2.432-1.661 3.369-2.665 1.364-1.463 2.255-2.784 2.805-4.156.115-.288.198-.585.283-.896.036-.131.072-.262.11-.39a.268.268 0 0 0-.167-.332l-.113-.009c-.557 0-5.518.082-8.42 2.895a15.015 15.015 0 0 0-1.713 1.974 53.008 53.008 0 0 0 2.905-7.645l.012-.039a.525.525 0 0 1 .033-.095l.759-1.04c.028-.043.032-.043.076-.043l.066.003.163.01c.564.035.897.03 1.17-.013 1.081-.17 2.056-.714 2.982-1.662 2.165-2.218 3.655-4.985 4.555-8.459.097-.372.124-.748.153-1.146.013-.181.027-.367.047-.56a.271.271 0 0 0-.097-.237ZM37.702 88.5c-1.8-.398-3.591-.977-5.475-1.77a.279.279 0 0 1-.096-.13 5.29 5.29 0 0 1-.193-1.97c.369-4.38-2.242-8.994-6.206-10.972a3.667 3.667 0 0 0-.274-.122l-.094-.039a.268.268 0 0 0-.37.291l.108.672c.096.595.19 1.176.28 1.758l.023.152c.255 1.654.518 3.365 1.03 5.008.464 1.482 1.178 2.652 2.17 3.549a31.379 31.379 0 0 1-5.827-4.43.387.387 0 0 1-.088-.208l-.048-1.172c0-.042 0-.153.023-.207.874-2.035 1.098-4.326.685-7.003-.398-2.582-1.502-4.956-3.28-7.057-.208-.246-.392-.37-.546-.37a.214.214 0 0 0-.098.021.27.27 0 0 0-.148.21l-.047.41c-.037.303-.073.6-.104.9-.055.525-.115 1.05-.175 1.575l-.01.076c-.15 1.312-.305 2.668-.387 4.026-.096 1.584-.068 3.434.87 5.146l.014.026a40.703 40.703 0 0 1-3.553-5.235c-.094-.165-.102-.31-.085-.52.076-.888.489-1.61.924-2.258.841-1.254 1.35-2.736 1.651-4.806.42-2.895-.004-5.8-1.26-8.633-.035-.078-.076-.153-.119-.234L16.9 55a.27.27 0 0 0-.49.025l-.894 2.243-.187.469c-.625 1.568-1.325 3.398-1.733 5.287-.287 1.333-.305 2.619-.053 3.843a47.984 47.984 0 0 1-2.395-7.323c-.007-.029-.01-.102.052-.271.287-.787.811-1.5 1.475-2.008 1.453-1.114 2.277-2.661 2.892-4.028 1.258-2.796 1.6-5.765 1.043-9.08a.71.71 0 0 0-.029-.106l-.01-.03a.272.272 0 0 0-.152-.166.282.282 0 0 0-.216.003.373.373 0 0 0-.195.131l-.954 1.269-.054.071c-.807 1.07-1.641 2.176-2.443 3.278-.929 1.274-1.585 2.511-2.006 3.784a8.668 8.668 0 0 0-.398 1.782 55.922 55.922 0 0 1-.452-6.3c-.008-.508.056-.911.403-1.353.367-.47.71-.734 1.184-.907 1.943-.71 3.19-2.208 4.058-3.435 1.404-1.984 2.227-4.293 2.517-7.058.031-.285.049-.573.067-.877l.004-.07c.009-.148.018-.302.03-.465a.27.27 0 0 0-.445-.224l-.23.197c-.087.074-.161.138-.238.2-.37.296-.742.59-1.115.885l-.039.031c-.818.647-1.663 1.316-2.471 2.007-1.567 1.335-2.576 2.664-3.176 4.183-.099.25-.186.498-.26.743.246-2.413.646-4.79 1.196-7.096.067-.282.104-.365.241-.41a.52.52 0 0 0 .226-.155c.399-.453.924-.524 1.432-.535 1.697-.04 3.043-.885 4.136-1.707 2.679-2.016 4.523-7.13 4.523-7.303a.27.27 0 0 0-.375-.248c-.558.236-1.116.467-1.694.706-1.272.526-2.586 1.07-3.849 1.665-1.27.601-2.275 1.404-2.992 2.393a54.478 54.478 0 0 1 2.365-5.676c.102-.197.582-.407 1.27-.407.223 0 .44.024.627.07 1.616.386 3.218.151 4.992-.734 1.814-.906 3.32-2.387 4.601-4.53.025-.041.073-.168.099-.239a.268.268 0 0 0-.035-.254.276.276 0 0 0-.232-.11h-.002l-.64.04c-.393.025-.774.049-1.156.068l-.407.02c-1.215.062-2.472.125-3.702.418-1.402.336-2.432.854-3.221 1.62a48.953 48.953 0 0 1 2.989-4.417c.028-.037.164-.093.276-.111.056-.013.258-.056.527-.056.358 0 .67.073.936.218 1.684.823 3.576.884 5.63.18 1.685-.575 3.112-1.644 4.363-3.265.04-.052.077-.109.11-.169a.229.229 0 0 0 .008-.215c-.097-.203-.516-.298-.692-.33-.433-.075-.924-.162-1.41-.227a81.803 81.803 0 0 1-.67-.097l-.028-.005c-.758-.111-1.542-.227-2.331-.267-1.442-.073-2.723.22-3.771.872a40 40 0 0 1 2.156-2.128c.231-.211.493-.423.85-.69a.378.378 0 0 1 .183-.05c2.526-.1 4.628-1.214 6.425-3.406.979-1.193 1.73-2.699 2.295-4.602l.02-.065c.06-.2.093-.31-.045-.44-.107-.099-.296-.07-.786.125-.445.17-.893.336-1.353.507-.924.342-1.88.696-2.802 1.095-1.542.67-2.772 1.684-3.658 3.015-.674 1.013-.941 2.03-.816 3.106 0 .012-.01.04-.013.043-1.608 1.388-3.146 2.95-4.726 4.81 1.053-1.608 1.74-3.46 2.084-5.607.347-2.164.37-4.09.068-5.889a6.065 6.065 0 0 0-.078-.366l-.05-.217A.274.274 0 0 0 22.9.48a.275.275 0 0 0-.264.062c-.11.103-.218.201-.324.296l-.074.067c-.27.243-.525.473-.755.732-2.241 2.525-3.549 5.193-3.996 8.155-.204 1.34-.12 2.479.259 3.484.125.333.32.63.515.925.089.135.178.27.26.41.06.1.064.125.064.12-.037.396-.09.838-.162 1.368a.493.493 0 0 1-.045.064l-.026.036a51.604 51.604 0 0 0-3.374 5.353c.4-1.387.719-3.143.697-5.183-.028-2.446-.592-4.628-1.725-6.671-.045-.08-.126-.131-.24-.14a.27.27 0 0 0-.214.111 4.384 4.384 0 0 1-.101.134 3.834 3.834 0 0 0-.203.28c-.903 1.414-1.387 2.973-1.708 4.173-.588 2.202-.858 4.04-.85 5.786.005 1.483.275 2.624.852 3.59.18.3.406.563.633.827.12.14.244.285.356.433a.54.54 0 0 1 .119.266c.014.352.007.71 0 1.055l-.006.24c0 .04-.01.088-.025.124a52.844 52.844 0 0 0-1.904 5.447c.08-.637.125-1.254.136-1.856.066-3.417-.983-6.468-3.119-9.07l-.445-.543a.267.267 0 0 0-.209-.1l-.044.005a.27.27 0 0 0-.209.171c-.04.108-.08.21-.119.309-.074.19-.145.371-.204.555-.459 1.434-.683 3-.73 5.078v.04c-.034 1.512-.081 3.583.54 5.565.612 1.95 1.691 2.937 1.9 3.114l.023.02c.57.507.94.972 1.017 1.273.03.122.062.244.099.365.162.536.06 1.048-.049 1.6-.054.279-.111.567-.13.862a260.67 260.67 0 0 1-.269 3.547l-.008.108-.072.89c-.237-2.66-1.12-5.079-2.637-7.218a14.16 14.16 0 0 0-3.293-3.328 2.571 2.571 0 0 0-.188-.119 4.475 4.475 0 0 1-.132-.08.27.27 0 0 0-.41.203c-.016.17-.036.332-.057.501-.042.346-.082.673-.083 1.009-.019 3.48.718 6.741 2.191 9.692.41.823.953 1.535 1.612 2.117.654.574 1.36.913 2.157 1.034.017.003.06.029.066.034l.132.26c.16.307.324.625.406.943.068.27.068.564.068.875 0 .115 0 .23.003.343.077 2.696.177 3.635.61 6.043a11.726 11.726 0 0 0-1.022-2.125c-1.73-2.796-3.927-4.694-6.717-5.802-.178-.071-.356-.123-.562-.183l-.041-.012c-.084-.024-.173-.05-.268-.08a.27.27 0 0 0-.35.287c.021.191.035.377.048.558.029.398.056.774.152 1.146.9 3.474 2.39 6.24 4.556 8.459.925.948 1.9 1.492 2.982 1.662.272.043.606.048 1.17.013l.162-.01.067-.002c.044 0 .048 0 .079.045l.756 1.037c.01.014.023.063.033.097l.011.037a53.072 53.072 0 0 0 2.906 7.645 14.986 14.986 0 0 0-1.713-1.974C8.558 64.25 3.596 64.17 3.04 64.17h-.069l-.044.008a.268.268 0 0 0-.168.331c.039.13.075.26.117.414.079.288.161.585.277.873.55 1.373 1.44 2.693 2.805 4.157.937 1.003 1.994 2.02 3.368 2.664 1.505.706 2.864.878 4.215.532.23-.06.494-.136.721-.284.162-.103.207-.1.366.018.188.14.389.258.584.372.107.063.216.127.317.19.016.014.05.07.063.092a42.375 42.375 0 0 0 3.991 5.486 8.541 8.541 0 0 0-2.432-1.25c-2.6-.837-5.325-.73-8.024.312a8.746 8.746 0 0 0-.874.409.27.27 0 0 0-.065.389c.084.109.166.219.246.328l.018.024c.182.248.389.528.62.777 1.043 1.116 2.329 1.865 3.563 2.507 1.697.88 3.432 1.354 5.159 1.41.08.002.162.004.243.004 1.588 0 2.827-.523 3.783-1.592a.192.192 0 0 1 .076-.024c.365.026.712.079.97.122.042.007.092.031.124.06a33.762 33.762 0 0 0 5.052 3.705 9.045 9.045 0 0 0-.825-.203c-1.888-.363-3.813-.136-5.928.704-1.427.568-2.754 1.403-4.057 2.551a.269.269 0 0 0-.034.369c.461.586 1.061.914 1.587 1.158 1.284.595 2.732.977 4.43 1.166.005 0 .55.048 1.316.048.552 0 1.066-.025 1.526-.074.44-.046.88-.121 1.305-.224 1.957-.475 3.283-1.454 4.042-2.972a.4.4 0 0 1 .146-.066c.353-.087.671-.149.973-.19a.535.535 0 0 1 .272.054c1.351.52 2.78.953 4.247 1.287a.27.27 0 0 0 .3-.135c.14-.26.31-.51.507-.742a.268.268 0 0 0-.147-.436Z" fill="#1C1D28"/><path fill-rule="evenodd" clip-rule="evenodd" d="M43.69 28.47c.013-.522.034-1.023.06-1.498h24c.027.475.047.976.06 1.498h9.44v1.499c0 2.94-.713 7.438-2.875 11.504-2.151 4.046-5.788 7.739-11.594 8.9-1.332 1.674-2.987 2.875-5.03 3.349v6.215c0 3.197 2.333 4.662 3.5 4.995h-11c2.8 0 3.5-3.33 3.5-4.995v-6.215c-2.16-.5-3.887-1.815-5.256-3.64-5.1-1.405-8.374-4.855-10.37-8.61-2.162-4.065-2.875-8.562-2.875-11.503V28.47h8.44Zm.005 2.997h-5.38c.203 2.47.91 5.684 2.46 8.6 1.242 2.336 3.002 4.446 5.468 5.861-1.739-4.39-2.422-9.858-2.548-14.461Zm21.3 15.095c3.141-1.367 5.286-3.779 6.73-6.495 1.55-2.916 2.257-6.13 2.46-8.6h-6.38c-.132 4.827-.877 10.606-2.81 15.095ZM47.75 65.932v5.494h16V65.93h-16Z" fill="#F2C94C"/></svg>