<svg width="64" height="64" fill="none" xmlns="http://www.w3.org/2000/svg"><g filter="url(#a)"><path d="M0 32C0 14.327 14.327 0 32 0c17.673 0 32 14.327 32 32 0 17.673-14.327 32-32 32C14.327 64 0 49.673 0 32Z" fill="#fff"/></g><path d="M23.98 36.572v-9.425c0-4.018 0-6.027 1.309-6.801 1.309-.775 3.07.192 6.591 2.126l8.079 4.435c3.57 1.96 5.354 2.94 5.393 4.471.04 1.532-1.693 2.602-5.157 4.742l-8.079 4.99c-3.6 2.223-5.4 3.335-6.768 2.572-1.367-.763-1.367-2.879-1.367-7.11Z" fill="#1D2130"/><defs><filter id="a" x="-80" y="-80" width="224" height="224" filterUnits="userSpaceOnUse" color-interpolation-filters="sRGB"><feFlood flood-opacity="0" result="BackgroundImageFix"/><feGaussianBlur in="BackgroundImageFix" stdDeviation="40"/><feComposite in2="SourceAlpha" operator="in" result="effect1_backgroundBlur_1_691"/><feBlend in="SourceGraphic" in2="effect1_backgroundBlur_1_691" result="shape"/></filter></defs></svg>