<svg width="28" height="28" fill="none" xmlns="http://www.w3.org/2000/svg"><rect width="28" height="28" rx="4" fill="#000"/><path d="M13.882 12.242c.17.062.336-.091.28-.255-.386-1.12-1.78-1.54-3.077-.544-.682.523-.939.634-.945.637.45.425.963 1.85 2.084 2.007 1.235.211 2.328-.936 1.434-1.461a3.985 3.985 0 0 0-2.023-.546 4.041 4.041 0 0 1 2.247.162ZM19.474 11.443c-2.238-1.718-3.665.99-2.778.722.63-.19 1.32-.232 2.01-.085-1.17 0-2.25.507-2.97 1.332.06-1.297.149-2.108.252-2.712.599-.02 1.396-.475 1.834-1.274.754-1.275.404-2.583.292-3.408-.59.542-3.166-.094-4.187 1.56-.452.73-.32 1.618.154 2.268.15.206.51.107.52-.143.044-1.086.617-1.907 1.684-2.362a4.787 4.787 0 0 0-.956 1.92c-.252 1.057-.516 1.75-.613 5.118-.01.341.283.624.645.62a.648.648 0 0 0 .587-.389 2.76 2.76 0 0 1 .808-1.036c.385.403.972.617 1.579.513 1.116-.157 1.637-1.585 2.084-2.007-.006-.003-.262-.114-.945-.637ZM22.765 15.638c-.7-.448-1.462-.128-1.811.062l-4.39 3.034h-2.57l-.642-.606h2.36c.71 0 1.505-.437 1.505-1.214 0-.825-.795-1.214-1.505-1.214h-.884c-.657 0-1.425.056-1.966-.218a4.012 4.012 0 0 0-1.74-.388c-1.06 0-2.011.4-2.662 1.03L5 19.341l3.855 3.64 1.285-1.82h6.072c.648 0 1.273-.224 1.757-.63l4.84-4.06a.514.514 0 0 0-.044-.833Z" fill="#FFEBB9"/></svg>