<?xml version="1.0" standalone="no"?>
<!DOCTYPE svg PUBLIC "-//W3C//DTD SVG 20010904//EN"
 "http://www.w3.org/TR/2001/REC-SVG-20010904/DTD/svg10.dtd">
<svg version="1.0" xmlns="http://www.w3.org/2000/svg"
 width="720.000000pt" height="720.000000pt" viewBox="0 0 720.000000 720.000000"
 preserveAspectRatio="xMidYMid meet">
<metadata>
Created by potrace 1.14, written by Peter Selinger 2001-2017
</metadata>
<g transform="translate(0.000000,720.000000) scale(0.100000,-0.100000)"
fill="#000000" stroke="none">
<path d="M5667 6404 c-3 -3 -34 -7 -70 -9 -35 -2 -77 -7 -93 -10 -16 -3 -42
-8 -59 -10 -63 -8 -174 -39 -222 -61 -17 -8 -36 -14 -41 -14 -18 0 -142 -60
-221 -107 -161 -95 -334 -256 -446 -414 -50 -70 -130 -216 -167 -304 -25 -62
-67 -208 -74 -263 -2 -20 -6 -44 -9 -52 -2 -8 -7 -44 -11 -80 -8 -79 -8 -2898
0 -2955 3 -22 8 -58 11 -80 2 -22 7 -49 9 -60 67 -307 192 -543 400 -751 108
-107 159 -147 291 -229 122 -76 330 -154 475 -179 19 -3 46 -8 60 -11 14 -3
59 -7 102 -10 42 -2 80 -5 85 -6 4 -1 10 -1 13 0 3 1 48 4 100 6 118 5 150 10
258 36 152 37 288 96 461 199 145 87 349 299 448 465 34 58 113 227 128 275 9
30 19 62 22 70 8 18 7 17 18 60 4 19 9 42 10 50 1 8 5 26 8 40 4 14 9 41 13
60 9 48 13 2951 4 3025 -13 104 -21 149 -35 200 -35 128 -45 161 -54 180 -5
11 -26 55 -45 97 -64 144 -173 296 -298 418 -95 93 -123 115 -264 208 -36 24
-242 122 -257 122 -7 0 -17 3 -21 7 -9 9 -119 39 -216 58 -41 9 -124 18 -184
20 -59 3 -111 7 -116 10 -4 2 -10 2 -13 -1z"/>
<path d="M1437 4004 c-2 -3 -36 -7 -73 -9 -61 -3 -140 -14 -227 -30 -88 -17
-360 -123 -402 -157 -5 -5 -40 -27 -76 -51 -37 -23 -86 -58 -110 -77 -69 -55
-203 -192 -250 -256 -23 -33 -45 -61 -48 -64 -18 -15 -160 -297 -166 -328 -2
-12 -7 -27 -10 -32 -3 -5 -8 -18 -10 -27 -3 -10 -9 -36 -15 -58 -41 -155 -45
-202 -45 -530 0 -253 3 -314 19 -390 18 -86 61 -239 74 -260 4 -5 7 -15 8 -22
5 -32 149 -291 174 -313 3 -3 19 -23 36 -45 37 -50 176 -191 228 -230 22 -17
51 -39 65 -51 52 -41 268 -160 306 -169 5 -1 23 -7 38 -14 46 -18 197 -59 262
-71 48 -8 182 -20 240 -22 29 -1 204 12 225 17 14 3 41 8 60 11 19 3 60 12 90
20 30 8 62 16 70 19 127 32 358 155 485 258 121 99 279 282 341 397 10 19 21
37 24 40 10 10 50 97 50 109 0 6 5 11 12 11 6 0 8 3 5 6 -3 4 -1 16 5 28 7 11
13 23 13 26 1 3 13 43 27 90 15 47 29 99 32 115 4 17 9 41 11 55 17 81 20 143
20 400 0 273 -5 353 -25 430 -5 19 -11 47 -14 61 -17 99 -158 415 -211 474 -5
7 -19 24 -30 40 -56 78 -170 197 -254 265 -24 19 -49 41 -56 48 -8 6 -16 12
-18 12 -3 0 -32 18 -66 41 -195 130 -457 214 -704 225 -49 2 -92 6 -96 9 -5 2
-11 2 -14 -1z"/>
</g>
</svg>
