<svg width="20" height="20" fill="none" xmlns="http://www.w3.org/2000/svg"><path d="M18.125 10H15V7.5C15 6.121 16.121 5 17.5 5h.313c.519 0 .937-.418.937-.938V2.188a.935.935 0 0 0-.938-.937H17.5a6.248 6.248 0 0 0-6.25 6.25v9.375c0 1.035.84 1.875 1.875 1.875h5c1.035 0 1.875-.84 1.875-1.875v-5C20 10.84 19.16 10 18.125 10Zm-11.25 0H3.75V7.5c0-1.379 1.121-2.5 2.5-2.5h.313c.519 0 .937-.418.937-.938V2.188a.935.935 0 0 0-.938-.937H6.25A6.248 6.248 0 0 0 0 7.5v9.375c0 1.035.84 1.875 1.875 1.875h5c1.035 0 1.875-.84 1.875-1.875v-5C8.75 10.84 7.91 10 6.875 10Z" fill="#5373FD"/></svg>