<svg width="16" height="16" fill="none" xmlns="http://www.w3.org/2000/svg"><g clip-path="url(#a)"><path d="m15.782 13.833-3.115-3.115a.75.75 0 0 0-.532-.219h-.51a6.467 6.467 0 0 0 1.376-4c0-3.59-2.91-6.499-6.5-6.499a6.499 6.499 0 1 0 0 12.999 6.47 6.47 0 0 0 4-1.375v.51c0 .2.078.39.219.53l3.115 3.116a.747.747 0 0 0 1.06 0l.884-.885a.753.753 0 0 0 .003-1.062ZM6.5 10.499c-2.21 0-4-1.787-4-4 0-2.209 1.788-4 4-4 2.21 0 4 1.788 4 4 0 2.21-1.787 4-4 4Z" fill="#fff"/></g><defs><clipPath id="a"><path fill="#fff" d="M0 0h16v16H0z"/></clipPath></defs></svg>