<svg width="125" height="44" fill="none" xmlns="http://www.w3.org/2000/svg"><path d="M4.875 12v18H1.488V12h3.387Zm9.633 15.14v-5.648c0-.406-.067-.754-.2-1.043a1.483 1.483 0 0 0-.62-.691c-.274-.164-.63-.246-1.067-.246-.375 0-.7.066-.973.199a1.408 1.408 0 0 0-.632.55 1.522 1.522 0 0 0-.223.833H7.418c0-.54.125-1.051.375-1.535.25-.485.613-.91 1.09-1.278a5.383 5.383 0 0 1 1.699-.879c.664-.21 1.406-.316 2.227-.316.984 0 1.859.164 2.625.492.765.328 1.367.82 1.804 1.477.446.656.668 1.476.668 2.46v5.426c0 .696.043 1.266.13 1.711.085.438.21.82.374 1.149V30H15c-.164-.344-.29-.773-.375-1.29a10.626 10.626 0 0 1-.117-1.57Zm.445-4.863.024 1.91H13.09c-.445 0-.832.051-1.16.153a2.16 2.16 0 0 0-.809.433c-.21.18-.367.391-.469.633-.093.242-.14.508-.14.797 0 .29.066.55.199.785.133.227.324.407.574.54.25.124.543.187.88.187.507 0 .948-.102 1.323-.305s.664-.453.867-.75c.211-.297.32-.578.329-.844l.89 1.43c-.125.32-.297.652-.515.996a4.65 4.65 0 0 1-.809.973 4.17 4.17 0 0 1-1.184.738c-.46.188-1.007.281-1.64.281-.805 0-1.535-.16-2.192-.48a3.994 3.994 0 0 1-1.546-1.348c-.375-.578-.563-1.234-.563-1.968 0-.665.125-1.254.375-1.77s.617-.95 1.102-1.3c.492-.36 1.105-.63 1.84-.81.734-.187 1.585-.28 2.554-.28h1.957Zm8.93-2.191V30h-3.375V17.32h3.176l.199 2.766Zm3.82-2.848-.058 3.13a8.16 8.16 0 0 0-.598-.06 6.089 6.089 0 0 0-.621-.035c-.477 0-.89.063-1.242.188a2.216 2.216 0 0 0-.868.527c-.226.235-.398.52-.515.856a4.2 4.2 0 0 0-.188 1.148l-.68-.21c0-.821.083-1.575.247-2.262.164-.696.402-1.301.715-1.817.32-.515.71-.914 1.171-1.195.461-.281.989-.422 1.582-.422.188 0 .38.016.575.047.195.023.355.058.48.105Zm9.387.082h3.058v12.258c0 1.156-.257 2.137-.773 2.942-.508.812-1.219 1.425-2.133 1.84-.914.421-1.976.632-3.187.632-.532 0-1.094-.07-1.688-.21a6.748 6.748 0 0 1-1.687-.657A4.458 4.458 0 0 1 29.344 33l1.488-1.992c.39.453.844.805 1.36 1.055a3.772 3.772 0 0 0 1.71.386c.61 0 1.125-.113 1.547-.34a2.25 2.25 0 0 0 .973-.972c.226-.422.34-.934.34-1.535V20.25l.328-2.93Zm-8.531 6.492v-.246c0-.968.117-1.847.351-2.636.242-.797.582-1.48 1.02-2.051a4.635 4.635 0 0 1 1.617-1.324c.633-.313 1.348-.47 2.144-.47.844 0 1.551.157 2.121.47.57.312 1.04.758 1.407 1.336.367.57.652 1.246.855 2.027.211.773.375 1.621.492 2.543V24a15.02 15.02 0 0 1-.527 2.46 7.56 7.56 0 0 1-.926 1.993c-.383.563-.86 1-1.43 1.313-.562.312-1.234.468-2.015.468-.781 0-1.488-.16-2.121-.48a4.737 4.737 0 0 1-1.606-1.348 6.42 6.42 0 0 1-1.03-2.039 8.857 8.857 0 0 1-.352-2.555Zm3.375-.246v.247c0 .523.05 1.011.152 1.464.102.453.258.856.469 1.207.218.344.488.614.808.809.328.188.715.281 1.16.281.618 0 1.121-.129 1.512-.387a2.43 2.43 0 0 0 .88-1.09c.194-.46.308-.992.339-1.593v-1.535a5.183 5.183 0 0 0-.2-1.325 3.176 3.176 0 0 0-.492-1.019c-.21-.281-.484-.5-.82-.656-.336-.157-.734-.235-1.195-.235-.445 0-.832.102-1.16.305-.32.195-.59.465-.809.809-.21.343-.371.75-.48 1.218-.11.461-.164.961-.164 1.5Zm16.675 6.668c-.984 0-1.867-.156-2.648-.468a5.814 5.814 0 0 1-1.992-1.325 5.883 5.883 0 0 1-1.242-1.957 6.589 6.589 0 0 1-.434-2.39v-.469c0-.96.137-1.84.41-2.637a6.202 6.202 0 0 1 1.172-2.074 5.147 5.147 0 0 1 1.875-1.348c.734-.32 1.563-.48 2.484-.48.899 0 1.696.148 2.391.445a4.685 4.685 0 0 1 1.746 1.266c.477.547.836 1.203 1.078 1.969.242.757.364 1.601.364 2.53v1.407H43.733v-2.25h6.762v-.258c0-.468-.086-.886-.258-1.254a1.99 1.99 0 0 0-.75-.89c-.336-.219-.765-.328-1.289-.328-.445 0-.828.097-1.148.293-.32.195-.582.468-.785.82a4.467 4.467 0 0 0-.446 1.242c-.093.469-.14.985-.14 1.547v.469c0 .508.07.976.21 1.406.15.43.356.8.622 1.113.273.313.601.555.984.727.39.172.832.258 1.324.258a4.11 4.11 0 0 0 1.7-.352 3.678 3.678 0 0 0 1.37-1.09l1.641 1.782c-.265.382-.629.75-1.09 1.101-.453.352-1 .64-1.64.867-.64.219-1.371.328-2.192.328Zm10.5-10.148V30h-3.375V17.32h3.176l.2 2.766Zm3.82-2.848-.058 3.13a8.164 8.164 0 0 0-.598-.06 6.087 6.087 0 0 0-.62-.035c-.477 0-.891.063-1.243.188a2.215 2.215 0 0 0-.867.527c-.227.235-.398.52-.516.856-.109.336-.172.718-.187 1.148l-.68-.21c0-.821.082-1.575.246-2.262.164-.696.403-1.301.715-1.817.32-.515.711-.914 1.172-1.195.46-.281.988-.422 1.582-.422.188 0 .379.016.574.047.196.023.356.058.48.105Zm8.391.082v2.39h-7.382v-2.39h7.382Zm-5.554-3.129h3.375V26.18c0 .367.046.648.14.843.102.196.25.332.446.41.195.07.441.106.738.106.21 0 .398-.008.562-.023.172-.024.317-.047.434-.07l.012 2.484c-.29.093-.602.168-.938.222a6.954 6.954 0 0 1-1.113.082c-.742 0-1.39-.12-1.945-.363a2.68 2.68 0 0 1-1.266-1.195c-.297-.547-.445-1.266-.445-2.156V14.19ZM76.536 12v18H73.16V12h3.375Zm-.481 11.215h-.926a8.579 8.579 0 0 1 .352-2.438c.226-.75.55-1.398.972-1.945a4.49 4.49 0 0 1 1.512-1.289 4.248 4.248 0 0 1 1.969-.457c.625 0 1.191.09 1.699.27a3.16 3.16 0 0 1 1.324.843c.375.383.664.887.867 1.512.203.625.305 1.383.305 2.273V30H80.73v-8.04c0-.562-.083-1.003-.247-1.323a1.356 1.356 0 0 0-.691-.692c-.297-.14-.664-.21-1.102-.21-.484 0-.898.09-1.242.269-.336.18-.605.43-.808.75-.204.312-.352.68-.446 1.101-.093.422-.14.875-.14 1.36Zm17.484 3.926v-5.649c0-.406-.066-.754-.2-1.043a1.483 1.483 0 0 0-.62-.691c-.274-.164-.63-.246-1.067-.246-.375 0-.699.066-.972.199a1.407 1.407 0 0 0-.633.55 1.522 1.522 0 0 0-.223.833H86.45c0-.54.125-1.051.375-1.535.25-.485.614-.91 1.09-1.278a5.381 5.381 0 0 1 1.7-.879c.663-.21 1.405-.316 2.226-.316.984 0 1.86.164 2.625.492.766.328 1.367.82 1.804 1.477.446.656.668 1.476.668 2.46v5.426c0 .696.044 1.266.13 1.711.085.438.21.82.374 1.149V30h-3.41c-.164-.344-.289-.773-.375-1.29a10.626 10.626 0 0 1-.117-1.57Zm.445-4.864.024 1.91H92.12c-.445 0-.832.051-1.16.153a2.16 2.16 0 0 0-.809.433c-.21.18-.367.391-.468.633-.094.242-.141.508-.141.797 0 .29.066.55.2.785.132.227.323.407.573.54.25.124.543.187.88.187.507 0 .948-.102 1.323-.305s.665-.453.868-.75c.21-.297.32-.578.328-.844l.89 1.43c-.124.32-.296.652-.515.996-.211.344-.48.668-.809.973a4.17 4.17 0 0 1-1.183.738c-.461.188-1.008.281-1.641.281-.805 0-1.535-.16-2.191-.48a3.994 3.994 0 0 1-1.547-1.348c-.375-.578-.563-1.234-.563-1.968 0-.665.125-1.254.375-1.77s.617-.95 1.102-1.3c.492-.36 1.105-.63 1.84-.81.734-.187 1.586-.28 2.554-.28h1.957Zm8.86-2.25V30h-3.375V17.32h3.164l.211 2.707Zm-.492 3.188h-.914c0-.938.121-1.781.363-2.531.242-.758.582-1.403 1.019-1.934.438-.54.957-.95 1.559-1.23.609-.29 1.289-.434 2.039-.434.594 0 1.137.086 1.629.258.492.172.914.445 1.265.82.36.375.633.871.821 1.488.195.617.293 1.371.293 2.262V30h-3.399v-8.098c0-.562-.078-1-.234-1.312a1.317 1.317 0 0 0-.691-.656c-.297-.133-.664-.2-1.102-.2-.453 0-.848.09-1.184.27-.328.18-.601.43-.82.75-.211.312-.371.68-.48 1.101-.11.422-.164.875-.164 1.36ZM121.348 15.51a2.415 2.415 0 0 1-.61.463 2.242 2.242 0 0 1-.72.22 1.37 1.37 0 0 1-.721-.122 1.7 1.7 0 0 1-.573-.452c-.35-.407-.525-.818-.525-1.233 0-.415.065-.724.195-.927.138-.212.309-.383.513-.513.39-.252.757-.379 1.098-.379.35 0 .619.025.806.074.195.049.374.13.537.244.399.268.598.598.598.989 0 .382-.057.704-.171.964a2.286 2.286 0 0 1-.427.671Zm-2.502 13.207c.211 0 .317.139.317.415 0 .366-.167.745-.5 1.136-.489.57-1.144.854-1.966.854-.944 0-1.591-.382-1.941-1.147-.13-.269-.195-.595-.195-.977s.065-.806.195-1.27c.139-.472.306-.964.501-1.477.203-.52.423-1.045.659-1.574l.647-1.538c.472-1.148.708-1.905.708-2.27 0-.367-.041-.607-.122-.721a.939.939 0 0 0-.244-.28l-.244-.172c-.082-.057-.122-.154-.122-.293 0-.146.052-.284.158-.415.114-.13.261-.244.44-.341.366-.188.793-.281 1.281-.281 1.197 0 1.795.313 1.795.94 0 .732-.191 1.57-.574 2.514a54.786 54.786 0 0 1-.976 2.27l-.733 1.685c-.537 1.237-.805 2.129-.805 2.674 0 .358.179.537.537.537.35 0 .614-.045.793-.134.179-.09.309-.135.391-.135Z" fill="#fff"/></svg>