<svg width="28" height="28" fill="none" xmlns="http://www.w3.org/2000/svg"><rect width="28" height="28" rx="4" fill="#000"/><path d="M22.797 19.442a3.116 3.116 0 0 1-.724-.703c-.483-.548-1.097-1.228-2.238-1.228s-1.733.658-2.238 1.25c-.505.593-.834.944-1.58.944-.746 0-1.119-.417-1.58-.943-.46-.527-1.075-1.251-2.237-1.251-1.163 0-1.734.658-2.239 1.25-.504.593-.833.944-1.58.944-.745 0-1.118-.417-1.579-.943a3.73 3.73 0 0 0-1.163-1.01.441.441 0 1 0-.395.79c.345.208.65.475.9.79.504.592 1.097 1.25 2.238 1.25 1.14 0 1.733-.658 2.238-1.25.504-.593.834-.944 1.58-.944.745 0 1.119.417 1.58.944.46.526 1.074 1.25 2.237 1.25s1.733-.658 2.238-1.25c.505-.593.834-.944 1.58-.944.746 0 1.119.417 1.58.944.255.328.559.617.9.856a.444.444 0 1 0 .482-.746ZM22.797 16.15a3.118 3.118 0 0 1-.724-.702c-.483-.548-1.097-1.228-2.238-1.228s-1.733.658-2.238 1.25c-.505.593-.834.944-1.58.944-.746 0-1.119-.417-1.58-.944-.46-.526-1.075-1.25-2.237-1.25-1.163 0-1.734.658-2.239 1.25-.504.593-.833.944-1.58.944-.745 0-1.118-.417-1.579-.944a3.73 3.73 0 0 0-1.163-1.009.442.442 0 0 0-.395.79c.345.208.65.475.9.79.504.592 1.097 1.25 2.238 1.25 1.14 0 1.733-.658 2.238-1.25.504-.593.834-.944 1.58-.944.745 0 1.119.417 1.58.944.46.526 1.074 1.25 2.237 1.25s1.733-.658 2.238-1.25c.505-.593.834-.944 1.58-.944.746 0 1.119.417 1.58.944.255.328.559.616.9.855a.444.444 0 0 0 .482-.745ZM22.797 12.64a3.116 3.116 0 0 1-.724-.702c-.483-.549-1.097-1.229-2.238-1.229s-1.733.658-2.238 1.25c-.505.593-.834.944-1.58.944-.746 0-1.119-.417-1.58-.943-.46-.527-1.075-1.251-2.237-1.251-1.163 0-1.734.658-2.239 1.25-.504.593-.833.944-1.58.944-.745 0-1.118-.417-1.579-.943a3.73 3.73 0 0 0-1.163-1.01.441.441 0 1 0-.395.79c.345.208.65.475.9.79.504.593 1.097 1.25 2.238 1.25 1.14 0 1.733-.657 2.238-1.25.504-.592.834-.943 1.58-.943.745 0 1.119.417 1.58.943.46.527 1.074 1.25 2.237 1.25s1.733-.657 2.238-1.25c.505-.592.834-.943 1.58-.943.746 0 1.119.417 1.58.943.255.328.559.617.9.856a.444.444 0 1 0 .482-.746ZM5.244 8.45c.345.207.65.474.9.79.505.591 1.097 1.25 2.238 1.25 1.14 0 1.733-.658 2.238-1.25.505-.593.834-.944 1.58-.944.746 0 1.119.417 1.58.943.46.527 1.075 1.25 2.237 1.25 1.163 0 1.734-.657 2.238-1.25.505-.592.834-.943 1.58-.943.746 0 1.12.417 1.58.943.256.328.559.617.9.856a.444.444 0 0 0 .482-.746 3.114 3.114 0 0 1-.724-.702c-.483-.549-1.097-1.229-2.238-1.229-1.14 0-1.733.658-2.238 1.25-.505.593-.834.944-1.58.944-.746 0-1.119-.417-1.58-.943-.46-.527-1.074-1.251-2.237-1.251s-1.734.658-2.238 1.25c-.505.593-.834.944-1.58.944-.746 0-1.119-.417-1.58-.943a3.73 3.73 0 0 0-1.163-1.01.442.442 0 1 0-.395.79Z" fill="#FFEBB9"/></svg>