<svg width="28" height="28" fill="none" xmlns="http://www.w3.org/2000/svg"><rect width="28" height="28" rx="4" fill="#000"/><path d="M14.94 18.598h.878V21h-.878v-2.402ZM13.182 18.598h.878V21h-.878v-2.402Z" fill="#FFEBB9"/><path d="M17.459 6h-5.918a.44.44 0 0 0-.44.44V21h1.202v-2.842a.44.44 0 0 1 .44-.44h3.515a.44.44 0 0 1 .44.44V21h1.2V6.44A.44.44 0 0 0 17.46 6Zm-4.277 10.4a.44.44 0 1 1-.88 0v-.878a.44.44 0 0 1 .88 0v.878Zm0-2.636a.44.44 0 1 1-.88 0v-.88a.44.44 0 0 1 .88 0v.88ZM14.94 16.4a.44.44 0 0 1-.88 0v-.878a.44.44 0 0 1 .88 0v.878Zm0-2.636a.44.44 0 0 1-.88 0v-.88a.44.44 0 0 1 .88 0v.88Zm1.757 2.636a.44.44 0 0 1-.879 0v-.878a.44.44 0 1 1 .88 0v.878Zm0-2.636a.44.44 0 0 1-.879 0v-.88a.44.44 0 1 1 .88 0v.88Zm-3.515-2.637a.44.44 0 0 1-.88 0v-.879a.44.44 0 0 1 .88 0v.879Zm1.758 0a.44.44 0 0 1-.88 0v-.879a.44.44 0 0 1 .88 0v.879Zm1.757 0a.44.44 0 0 1-.879 0v-.879a.44.44 0 0 1 .88 0v.879ZM13.182 8.49a.44.44 0 1 1-.88 0v-.879a.44.44 0 0 1 .88 0v.88Zm1.758 0a.44.44 0 0 1-.88 0v-.879a.44.44 0 0 1 .88 0v.88Zm1.757 0a.44.44 0 0 1-.879 0v-.879a.44.44 0 1 1 .88 0v.88ZM21.56 11.86h-2.783V21h2.784a.44.44 0 0 0 .439-.44V12.3a.44.44 0 0 0-.44-.44Zm-.732 5.712a.44.44 0 1 1-.879 0v-.879a.44.44 0 0 1 .88 0v.88Zm0-2.636a.44.44 0 1 1-.879 0v-.88a.44.44 0 0 1 .88 0v.88ZM7.44 11.86a.44.44 0 0 0-.44.439v8.262c0 .242.197.439.44.439h2.783v-9.14H7.439Zm1.61 5.712a.44.44 0 0 1-.878 0v-.879a.44.44 0 1 1 .879 0v.88Zm0-2.636a.44.44 0 0 1-.878 0v-.88a.44.44 0 0 1 .879 0v.88Z" fill="#FFEBB9"/></svg>