<svg width="28" height="28" fill="none" xmlns="http://www.w3.org/2000/svg"><rect width="28" height="28" rx="4" fill="#000"/><path d="m20.29 11.73-.027-.037-.005-.01-2.465-3.66-2.465 3.66-.005.01-.027.037a3.105 3.105 0 0 0 2.497 4.942 3.105 3.105 0 0 0 2.497-4.942Z" fill="#FFEBB9"/><path d="M17.793 17.73a4.163 4.163 0 0 1-4.159-4.16c0-.89.278-1.74.804-2.457l1.62-2.405L13.56 5l-5.204 7.726a6.405 6.405 0 0 0-1.251 3.819A6.462 6.462 0 0 0 13.56 23c3.373 0 6.149-2.6 6.431-5.9a4.132 4.132 0 0 1-2.198.63Z" fill="#FFEBB9"/></svg>