<?xml version="1.0" standalone="no"?>
<!DOCTYPE svg PUBLIC "-//W3C//DTD SVG 20010904//EN"
 "http://www.w3.org/TR/2001/REC-SVG-20010904/DTD/svg10.dtd">
<svg version="1.0" xmlns="http://www.w3.org/2000/svg"
 width="512.000000pt" height="512.000000pt" viewBox="0 0 512.000000 512.000000"
 preserveAspectRatio="xMidYMid meet">
<metadata>
Created by potrace 1.14, written by Peter Selinger 2001-2017
</metadata>
<g transform="translate(0.000000,512.000000) scale(0.100000,-0.100000)"
fill="#000000" stroke="none">
<path d="M1298 4815 c-2 -2 -46 -5 -98 -8 -100 -7 -163 -14 -192 -23 -10 -3
-30 -7 -45 -10 -51 -9 -187 -56 -263 -90 -341 -158 -573 -466 -658 -874 -31
-146 -35 -183 -37 -357 -2 -222 20 -376 85 -595 185 -623 688 -1267 1475
-1889 239 -189 519 -382 785 -541 206 -123 208 -124 231 -110 11 7 39 23 62
34 23 12 61 34 84 50 23 15 44 28 47 28 17 0 386 246 561 374 135 98 382 290
395 306 3 3 50 44 105 90 93 78 432 411 500 490 291 339 496 651 605 920 12
30 28 69 35 85 33 78 88 261 100 335 3 19 10 53 15 75 24 112 33 369 17 530
-49 521 -338 923 -782 1088 -78 29 -204 61 -278 72 -27 3 -59 9 -70 11 -27 6
-325 6 -352 0 -11 -2 -45 -7 -75 -11 -30 -4 -64 -9 -75 -11 -18 -3 -123 -26
-135 -29 -264 -70 -487 -178 -693 -336 l-88 -68 -62 50 c-206 167 -468 294
-744 360 -45 11 -101 22 -125 25 -24 3 -49 7 -56 10 -20 6 -269 23 -274 19z
m1479 -839 c115 -59 134 -211 67 -536 -9 -41 -18 -86 -20 -99 -3 -12 -12 -53
-20 -90 -9 -36 -18 -77 -21 -91 -2 -14 -13 -67 -25 -119 -28 -132 -27 -171 6
-221 45 -68 109 -76 164 -21 37 38 64 126 118 392 25 123 48 233 50 244 3 11
7 31 10 45 11 52 56 176 77 210 73 119 181 161 290 111 42 -19 93 -72 123
-127 20 -34 36 -134 31 -183 -16 -144 -110 -381 -249 -626 -91 -162 -100 -180
-101 -213 -1 -41 34 -78 85 -87 33 -6 40 -3 70 27 18 19 87 109 152 199 129
177 279 337 360 384 122 71 222 9 230 -143 6 -122 -40 -225 -146 -329 -84 -82
-119 -115 -174 -161 -81 -69 -205 -197 -233 -241 -28 -44 -41 -92 -46 -173 -3
-34 -15 -160 -20 -203 -11 -97 -81 -314 -146 -453 -75 -162 -162 -265 -266
-318 -50 -25 -69 -29 -138 -28 -85 0 -120 13 -232 84 -52 33 -97 38 -146 16
-38 -17 -158 -52 -207 -61 -143 -25 -312 -10 -401 36 -21 10 -43 19 -49 19
-24 0 -181 114 -244 177 -66 66 -147 177 -221 303 -21 36 -50 78 -64 93 -26
29 -37 35 -186 100 -156 67 -253 133 -286 191 -83 148 79 344 277 337 132 -4
245 -92 427 -333 32 -43 67 -80 77 -83 49 -16 146 69 174 151 15 44 15 196 1
269 -19 97 -74 262 -140 420 -110 262 -224 562 -244 640 -39 154 -27 237 45
312 30 31 93 53 150 54 103 2 191 -57 244 -161 17 -34 67 -226 94 -361 46
-232 60 -299 86 -397 34 -131 55 -173 92 -186 43 -15 76 0 99 46 18 35 21 57
20 152 -1 61 -4 125 -6 141 -15 104 -21 402 -10 503 24 217 101 344 242 397
47 18 137 14 180 -9z"/>
</g>
</svg>
